<svg width="280" height="261" viewBox="0 0 280 261" fill="none" xmlns="http://www.w3.org/2000/svg">
<circle cx="144.127" cy="130.5" r="128.872" stroke="#A7CEFC" stroke-width="2" stroke-dasharray="15 15"/>
<circle cx="144.126" cy="130.5" r="75.0372" stroke="#A7CEFC" stroke-width="2" stroke-dasharray="15 15"/>
<circle cx="14.254" cy="130.696" r="13.7535" fill="#FF5758"/>
<circle cx="220.165" cy="130.696" r="13.7535" fill="#37A3FF"/>
<circle cx="144.322" cy="206.537" r="13.7535" fill="#FFBF60"/>
<circle cx="68.0893" cy="130.696" r="13.7535" fill="#37A3FF"/>
<circle cx="68.0893" cy="237.581" r="13.7535" fill="#37A3FF"/>
<circle cx="235.881" cy="42.2812" r="13.7535" fill="#37A3FF"/>
<circle cx="265.746" cy="171.957" r="13.7535" fill="#00CA75"/>
<mask id="mask0_1_228" style="mask-type:alpha" maskUnits="userSpaceOnUse" x="251" y="158" width="29" height="28">
<circle cx="265.746" cy="171.957" r="13.7535" fill="#C4C4C4"/>
</mask>
<g mask="url(#mask0_1_228)">
</g>
<circle cx="144.717" cy="54.4627" r="13.7535" fill="#00CA75"/>
<mask id="mask1_1_228" style="mask-type:alpha" maskUnits="userSpaceOnUse" x="130" y="40" width="29" height="29">
<circle cx="144.717" cy="54.4627" r="13.7535" fill="#C4C4C4"/>
</mask>
<g mask="url(#mask1_1_228)">
</g>
<circle cx="69.2695" cy="23.4191" r="13.7535" fill="#FFDC4D"/>
<g filter="url(#filter0_d_1_228)">
<rect x="124.674" y="111.049" width="39.2957" height="39.2957" rx="10" fill="white"/>
</g>
<g clip-path="url(#clip0_1_228)">
<path d="M135 126.769V130.03C135 131.022 136.219 131.552 136.964 130.857L140.52 127.597C141.299 126.885 140.791 125.628 139.724 125.628H136.168C135.525 125.628 135 126.141 135 126.769Z" fill="#5986EF"/>
<path d="M151.832 125.628H148.276C147.226 125.628 146.701 126.885 147.48 127.597L151.036 130.857C151.781 131.535 153 131.022 153 130.03V126.769C153 126.141 152.475 125.628 151.832 125.628Z" fill="#5986EF"/>
<path d="M144.804 133.588L151.036 139.313C151.781 139.992 153 139.479 153 138.486V135.193C153 134.878 152.865 134.58 152.627 134.365L144.804 127.167C144.347 126.753 143.653 126.753 143.196 127.167L135.373 134.365C135.135 134.58 135 134.878 135 135.193V138.486C135 139.479 136.219 140.008 136.964 139.313L143.196 133.588C143.653 133.174 144.347 133.174 144.804 133.588Z" fill="#5986EF"/>
</g>
<defs>
<filter id="filter0_d_1_228" x="79.6742" y="70.0487" width="129.296" height="129.296" filterUnits="userSpaceOnUse" color-interpolation-filters="sRGB">
<feFlood flood-opacity="0" result="BackgroundImageFix"/>
<feColorMatrix in="SourceAlpha" type="matrix" values="0 0 0 0 0 0 0 0 0 0 0 0 0 0 0 0 0 0 127 0" result="hardAlpha"/>
<feMorphology radius="5" operator="erode" in="SourceAlpha" result="effect1_dropShadow_1_228"/>
<feOffset dy="4"/>
<feGaussianBlur stdDeviation="25"/>
<feComposite in2="hardAlpha" operator="out"/>
<feColorMatrix type="matrix" values="0 0 0 0 0 0 0 0 0 0 0 0 0 0 0 0 0 0 0.25 0"/>
<feBlend mode="normal" in2="BackgroundImageFix" result="effect1_dropShadow_1_228"/>
<feBlend mode="normal" in="SourceGraphic" in2="effect1_dropShadow_1_228" result="shape"/>
</filter>
<clipPath id="clip0_1_228">
<rect width="18" height="14" fill="white" transform="translate(135 125.628)"/>
</clipPath>
</defs>
</svg>
