<svg width="170" height="26" viewBox="0 0 170 26" fill="none" xmlns="http://www.w3.org/2000/svg">
<path d="M138.018 10.8035C137.816 10.8206 137.613 10.8323 137.416 10.8579C137.288 10.874 137.233 10.827 137.148 10.8024C137.119 10.7939 137.089 10.7768 137.062 10.7789C136.863 10.796 136.664 10.8152 136.465 10.8345C136.404 10.8761 136.365 10.9316 136.272 10.9519C136.18 10.9711 136.073 10.9711 135.971 10.9807C135.837 10.9925 135.703 11.0042 135.569 11.0149C135.502 11.0202 135.447 11.0405 135.424 11.0789C135.42 11.0854 135.465 11.1014 135.489 11.111C135.571 11.143 135.65 11.1793 135.739 11.2039C135.825 11.2273 135.93 11.1889 136.022 11.2188C136.227 11.2861 136.229 11.285 136.386 11.2722C136.52 11.2604 136.654 11.2476 136.788 11.2391C136.814 11.237 136.845 11.253 136.873 11.2615C136.959 11.285 137.014 11.3384 137.14 11.3181C137.235 11.3021 137.341 11.2989 137.44 11.2903C137.524 11.3213 137.601 11.3565 137.69 11.3811C137.774 11.4046 137.798 11.4227 137.753 11.4537C137.713 11.4825 137.656 11.4943 137.581 11.4964C137.514 11.4975 137.447 11.5071 137.379 11.5124C137.345 11.5156 137.312 11.5177 137.28 11.5209C137.152 11.5327 137.152 11.5327 136.918 11.4644C136.827 11.4377 136.723 11.475 136.636 11.4494C136.577 11.4323 136.526 11.4067 136.469 11.3886C136.445 11.3811 136.406 11.38 136.376 11.3821C136.274 11.3896 136.172 11.395 136.075 11.4088C136.006 11.4184 135.965 11.4483 135.973 11.4782C135.975 11.49 136.024 11.5071 136.052 11.5081C136.117 11.5103 136.186 11.4953 136.249 11.5028C136.31 11.5103 136.373 11.5316 136.418 11.5551C136.51 11.6042 136.613 11.5604 136.701 11.5733C136.792 11.5871 136.867 11.6298 136.955 11.6555C136.977 11.6619 137.02 11.6512 137.054 11.648C137.154 11.6405 137.253 11.6341 137.353 11.6266C137.436 11.6576 137.526 11.6854 137.601 11.7206C137.737 11.7846 137.883 11.8092 138.06 11.7782C138.16 11.7612 138.257 11.7676 138.337 11.8092C138.418 11.8519 138.511 11.8476 138.615 11.8391C138.711 11.8306 138.808 11.8071 138.906 11.837C139.117 11.9031 139.119 11.9064 139.369 11.8807C139.444 11.8733 139.501 11.8711 139.558 11.8957C139.611 11.9181 139.668 11.9373 139.723 11.9587C139.822 11.9512 139.924 11.9437 140.023 11.9352C140.152 11.9234 140.223 11.9384 140.253 11.9982C140.271 12.0345 140.28 12.0676 140.324 12.0921C140.377 12.122 140.434 12.1209 140.511 12.1124C140.584 12.1049 140.637 12.0932 140.668 12.0548C140.68 12.0387 140.704 12.0238 140.727 12.011C140.745 12.0014 140.773 11.9864 140.79 11.9886C140.82 11.9928 140.861 12.0046 140.871 12.0184C140.971 12.1476 140.971 12.1487 141.072 12.1861C141.184 12.2277 141.3 12.2651 141.401 12.312C141.493 12.3537 141.584 12.3355 141.684 12.3355C141.759 12.3355 141.808 12.3633 141.802 12.3911C141.798 12.4071 141.769 12.4306 141.745 12.4327C141.546 12.454 141.344 12.4722 141.143 12.4871C141.119 12.4893 141.088 12.4701 141.06 12.4604C141.003 12.4412 140.952 12.4113 140.891 12.4049C140.83 12.3985 140.759 12.4145 140.692 12.4199C140.625 12.4252 140.554 12.4391 140.493 12.4306C140.432 12.422 140.383 12.3911 140.326 12.3708C140.3 12.3612 140.263 12.3473 140.241 12.3505C140.093 12.3761 139.983 12.3409 139.877 12.2939C139.855 12.2843 139.816 12.2779 139.788 12.28C139.552 12.2982 139.318 12.3195 139.083 12.3398C138.987 12.3483 138.91 12.311 138.889 12.248C138.879 12.2128 138.859 12.1775 138.859 12.1423C138.859 12.0782 138.747 12.043 138.666 12.0505C138.532 12.0612 138.396 12.0697 138.264 12.0857C138.156 12.0985 138.064 12.0857 137.991 12.0473C137.906 12.0035 137.808 12.012 137.711 12.0238C137.638 12.0323 137.617 12.0676 137.621 12.1562C137.625 12.2277 137.591 12.2501 137.459 12.2619C137.292 12.2768 137.123 12.2918 136.955 12.3035C136.928 12.3056 136.898 12.2875 136.871 12.2779C136.814 12.2587 136.764 12.2277 136.703 12.2213C136.642 12.2138 136.571 12.2298 136.504 12.2362C136.436 12.2416 136.365 12.2565 136.304 12.2491C136.243 12.2416 136.193 12.2096 136.138 12.1893C136.111 12.1797 136.079 12.1658 136.052 12.1679C135.918 12.1765 135.784 12.1893 135.65 12.201C135.5 12.2138 135.5 12.2138 135.286 12.1476C135.189 12.1177 135.091 12.1412 134.996 12.1498C134.894 12.1583 134.798 12.1626 134.719 12.1199C134.666 12.0921 134.607 12.075 134.544 12.0804C134.376 12.0932 134.209 12.1092 134.04 12.122C134.012 12.1242 133.973 12.1188 133.951 12.1092C133.843 12.0644 133.738 12.0291 133.587 12.0516C133.457 12.0708 133.317 12.0718 133.187 12.09C133.116 12.0996 133.083 12.1338 133.097 12.1605C133.105 12.1743 133.148 12.1903 133.177 12.1903C133.242 12.1914 133.313 12.1754 133.374 12.1818C133.5 12.1946 133.563 12.2843 133.727 12.2597C133.825 12.2448 133.927 12.2394 134.028 12.2352C134.055 12.2341 134.083 12.2544 134.111 12.2651C134.193 12.2939 134.264 12.3313 134.382 12.312C134.479 12.2971 134.583 12.2928 134.683 12.2843C134.841 12.2704 134.841 12.2715 135.046 12.3366C135.144 12.3676 135.241 12.343 135.337 12.3355C135.408 12.3302 135.475 12.3195 135.532 12.3345C135.619 12.3569 135.682 12.4081 135.79 12.4049C135.892 12.4017 135.991 12.3868 136.093 12.3814C136.156 12.3782 136.215 12.3953 136.266 12.4242C136.319 12.453 136.375 12.4658 136.445 12.4594C136.544 12.4508 136.646 12.4402 136.747 12.4348C136.776 12.4338 136.808 12.4434 136.835 12.4519C136.892 12.4711 136.947 12.4935 137.001 12.5138C137.101 12.5074 137.203 12.5053 137.3 12.4925C137.375 12.4829 137.428 12.4871 137.489 12.5085C137.566 12.5373 137.629 12.5886 137.755 12.564C137.818 12.5523 137.892 12.5555 137.955 12.5448C138.032 12.5309 138.085 12.5362 138.14 12.5683C138.243 12.6291 138.373 12.6302 138.507 12.6067C138.654 12.5811 138.763 12.611 138.873 12.658C138.989 12.7071 138.989 12.706 139.078 12.8245C139.105 12.8587 139.18 12.8747 139.243 12.8683C139.349 12.8576 139.44 12.8629 139.517 12.9035C139.599 12.9473 139.696 12.9419 139.796 12.9302C139.928 12.9142 140.06 12.9003 140.168 12.9622C140.221 12.9921 140.278 12.9996 140.349 12.9921C140.55 12.9729 140.753 12.9612 140.95 12.9377C141.07 12.9227 141.139 12.9569 141.22 12.9857C141.33 13.0252 141.45 13.0605 141.45 13.1448C141.45 13.1587 141.479 13.1747 141.503 13.1854C141.556 13.2078 141.613 13.227 141.668 13.2484C141.749 13.2804 141.828 13.3071 141.94 13.29C142.037 13.2761 142.141 13.2718 142.241 13.2622C142.34 13.2526 142.432 13.2473 142.521 13.2879C142.625 13.3338 142.735 13.3775 142.852 13.4117C142.936 13.4363 143.046 13.3946 143.135 13.4277C143.19 13.448 143.243 13.4715 143.302 13.4886C143.326 13.496 143.365 13.4907 143.397 13.4886C143.464 13.4843 143.533 13.4811 143.598 13.4704C143.674 13.4587 143.73 13.4608 143.787 13.4854C143.84 13.5078 143.893 13.5388 143.954 13.5452C144.045 13.5548 144.147 13.5121 144.238 13.5612C144.285 13.5857 144.344 13.6092 144.405 13.6167C144.466 13.6242 144.537 13.6081 144.602 13.6092C144.631 13.6092 144.665 13.6263 144.681 13.6402C144.692 13.6476 144.677 13.6679 144.663 13.6786C144.645 13.6914 144.618 13.7085 144.592 13.7106C144.391 13.7299 144.19 13.7459 143.988 13.764C143.869 13.7747 143.869 13.7747 143.627 13.7074C143.57 13.6914 143.507 13.6946 143.436 13.7021C143.34 13.7117 143.243 13.7299 143.143 13.7106C143.013 13.638 142.852 13.6316 142.682 13.6594C142.611 13.6711 142.546 13.6711 142.493 13.6509C142.381 13.6103 142.263 13.5729 142.163 13.5249C142.086 13.4875 142.05 13.4843 142.017 13.5356C142.007 13.5516 141.997 13.5686 141.999 13.5836C142.011 13.637 142.033 13.6893 142.046 13.7427C142.05 13.7576 142.033 13.7747 142.023 13.7907C141.991 13.8356 141.948 13.8323 141.877 13.795C141.806 13.7576 141.72 13.7331 141.607 13.7501C141.509 13.7651 141.403 13.763 141.306 13.779C141.155 13.8025 141.05 13.7683 140.942 13.7224C140.92 13.7128 140.881 13.7074 140.853 13.7096C140.55 13.7341 140.249 13.7619 139.946 13.7864C139.881 13.7918 139.822 13.7758 139.771 13.7469C139.719 13.7181 139.66 13.7032 139.595 13.7085C139.326 13.7309 139.058 13.7512 138.79 13.779C138.68 13.7907 138.593 13.7768 138.518 13.7395C138.461 13.7117 138.408 13.7032 138.337 13.7064C138.259 13.7096 138.205 13.7203 138.166 13.7512C138.129 13.7811 138.156 13.7992 138.237 13.8227C138.324 13.8484 138.406 13.8815 138.489 13.9114C138.556 13.9071 138.623 13.8985 138.688 13.8996C138.717 13.8996 138.743 13.9188 138.772 13.9295C138.853 13.9605 138.928 13.9914 139.044 13.9743C139.141 13.9594 139.245 13.9562 139.345 13.9466C139.483 13.9348 139.483 13.9348 139.706 14.0021C139.763 14.0192 139.824 14.0181 139.897 14.0085C139.96 14.001 140.025 14.016 140.07 14.048C140.089 14.0608 140.082 14.0822 140.044 14.1526C140.044 14.205 140.086 14.1815 140.101 14.1473C140.123 14.0982 140.08 14.0822 139.999 14.1089C139.942 14.1281 139.914 14.1558 139.928 14.1783C139.936 14.19 139.975 14.205 140.044 14.1526C140.223 14.0886 140.359 14.0811 140.489 14.064C140.566 14.0544 140.615 14.0587 140.676 14.0864C140.749 14.1195 140.822 14.1548 140.942 14.1377C141.072 14.1185 141.21 14.1163 141.342 14.1003C141.464 14.0854 141.527 14.1324 141.605 14.1601C141.698 14.1932 141.802 14.1558 141.887 14.1751C141.977 14.1943 142.04 14.2412 142.143 14.2498C142.294 14.221 142.389 14.2743 142.503 14.3096C142.592 14.3363 142.698 14.3128 142.793 14.301C142.901 14.2882 142.991 14.3 143.066 14.3384C143.151 14.3822 143.247 14.3726 143.344 14.363C143.572 14.3416 143.58 14.3384 143.712 14.3971C143.808 14.4398 143.899 14.4206 143.995 14.4153C144.078 14.4441 144.159 14.4751 144.247 14.5007C144.269 14.5071 144.312 14.4964 144.346 14.4932C144.446 14.4847 144.547 14.4761 144.647 14.4676C144.714 14.4622 144.785 14.4462 144.846 14.4526C144.907 14.4601 144.958 14.4911 145.013 14.5114C145.068 14.5316 145.125 14.5519 145.177 14.5733C145.259 14.6053 145.336 14.632 145.45 14.616C145.547 14.6021 145.649 14.5978 145.75 14.5882C145.879 14.5765 145.874 14.5797 146.112 14.6437C146.24 14.679 146.372 14.6363 146.502 14.632C146.567 14.6299 146.63 14.6416 146.675 14.6726C146.693 14.6854 146.687 14.7067 146.693 14.7249C146.358 14.7537 146.021 14.7783 145.689 14.8135C145.561 14.8274 145.494 14.7889 145.425 14.7569C145.312 14.7057 145.161 14.7804 145.053 14.7142C144.988 14.6747 144.895 14.6523 144.783 14.6715C144.718 14.6822 144.649 14.6811 144.582 14.6907C144.411 14.7142 144.255 14.7153 144.119 14.6416C144.072 14.616 144.005 14.6021 143.956 14.5776C143.899 14.5509 143.844 14.5359 143.777 14.5412C143.474 14.5669 143.174 14.5925 142.873 14.6202C142.846 14.6224 142.82 14.6384 142.798 14.6501C142.741 14.68 142.759 14.7035 142.85 14.7227C142.881 14.7292 142.905 14.743 142.934 14.7537C142.989 14.774 143.039 14.806 143.1 14.8135C143.161 14.821 143.232 14.806 143.3 14.8007C143.367 14.7953 143.438 14.7793 143.499 14.7857C143.56 14.7932 143.61 14.8242 143.667 14.8434C143.694 14.853 143.726 14.869 143.753 14.8679C143.887 14.8615 144.019 14.8498 144.153 14.8402C144.236 14.869 144.308 14.9106 144.407 14.9203C144.47 14.9267 144.537 14.9149 144.602 14.9171C144.631 14.9181 144.667 14.9341 144.681 14.948C144.69 14.9566 144.663 14.9779 144.643 14.9886C144.566 15.0292 144.46 15.0217 144.364 15.0345C144.261 15.0484 144.167 15.0441 144.088 15.0025C144.035 14.9747 143.976 14.9598 143.911 14.9651C143.743 14.979 143.576 14.995 143.407 15.0067C143.379 15.0089 143.344 14.9993 143.318 14.9918C143.104 14.9267 143.104 14.9245 142.954 14.9384C142.733 14.9587 142.733 14.9587 142.584 14.9021C142.556 14.8914 142.525 14.8712 142.501 14.8722C142.265 14.8893 142.031 14.9064 141.798 14.9309C141.72 14.9384 141.668 14.9384 141.611 14.9107C141.562 14.8872 141.505 14.8605 141.444 14.8541C141.381 14.8477 141.312 14.8637 141.245 14.869C141.178 14.8744 141.107 14.8882 141.048 14.8797C140.987 14.8711 140.934 14.8413 140.881 14.8199C140.826 14.7975 140.767 14.7985 140.692 14.8071C140.46 14.8316 140.458 14.8284 140.229 14.7623C140.202 14.7548 140.168 14.7462 140.139 14.7484C139.971 14.7612 139.804 14.7772 139.635 14.79C139.57 14.7953 139.507 14.7815 139.463 14.7505C139.444 14.7377 139.45 14.7163 139.438 14.6747C139.424 14.6651 139.44 14.6822 139.444 14.6982C139.475 14.6961 139.511 14.6982 139.534 14.6896C139.591 14.6694 139.619 14.6427 139.605 14.6202C139.597 14.6085 139.558 14.5936 139.534 14.5936C139.489 14.5936 139.45 14.617 139.438 14.6747C139.31 14.7099 139.174 14.7174 139.042 14.7345C138.965 14.7452 138.916 14.7398 138.855 14.7121C138.782 14.6779 138.707 14.6448 138.587 14.6619C138.457 14.6811 138.318 14.6843 138.184 14.6993C138.03 14.7163 137.963 14.6203 137.833 14.6224C137.699 14.6245 137.564 14.6427 137.43 14.6555C137.312 14.6662 137.312 14.6662 137.068 14.5968C136.979 14.5711 136.873 14.6085 136.786 14.5818C136.727 14.5647 136.676 14.5391 136.619 14.521C136.595 14.5135 136.556 14.5135 136.526 14.5156C136.357 14.5284 136.187 14.537 136.024 14.5605C135.839 14.5882 135.699 14.5583 135.567 14.4953C135.4 14.5071 135.231 14.5135 135.067 14.5338C134.947 14.5487 134.878 14.5135 134.796 14.4847C134.768 14.4751 134.744 14.459 134.713 14.4548C134.683 14.4505 134.646 14.459 134.613 14.4622C134.479 14.474 134.341 14.4793 134.211 14.4986C134.051 14.5231 133.99 14.4356 133.866 14.4249C133.782 14.4772 133.738 14.5487 133.573 14.5541C133.439 14.5583 133.305 14.5754 133.171 14.5872C133.104 14.5925 133.036 14.5989 132.969 14.6042C132.862 14.6139 132.811 14.6555 132.833 14.7195C132.845 14.7548 132.856 14.79 132.866 14.8252C132.886 14.8882 132.835 14.9416 132.75 14.9491C132.514 14.9694 132.28 14.9907 132.045 15.0089C131.982 15.0142 131.921 14.9961 131.87 14.9672C131.817 14.9384 131.758 14.9256 131.693 14.9309C131.457 14.9512 131.224 14.9726 130.988 14.9907C130.961 14.9929 130.927 14.9822 130.9 14.9736C130.844 14.9544 130.789 14.932 130.734 14.9117C130.6 14.9213 130.468 14.9277 130.336 14.9405C130.122 14.9598 130.122 14.9608 129.966 14.9021C129.937 14.8914 129.909 14.8712 129.882 14.8722C129.781 14.8765 129.681 14.8872 129.579 14.8968C129.281 14.9245 129.281 14.9245 129.193 14.8925C129.114 14.8626 129.043 14.8263 128.923 14.8434C128.793 14.8626 128.655 14.869 128.521 14.8797C128.421 14.8872 128.321 14.8957 128.222 14.8978C128.195 14.8989 128.167 14.8786 128.139 14.8679C128.057 14.8348 127.978 14.8082 127.866 14.8263C127.801 14.837 127.732 14.8391 127.665 14.8445C127.49 14.8594 127.49 14.8594 127.204 14.7953C127.175 14.7889 127.141 14.7815 127.112 14.7847C126.877 14.8039 126.643 14.8252 126.407 14.8434C126.379 14.8455 126.344 14.8391 126.316 14.8338C125.995 14.7719 125.995 14.7719 125.653 14.8018C125.523 14.8124 125.519 14.8167 125.383 14.7601C125.322 14.7356 125.271 14.7238 125.2 14.7313C124.932 14.7569 124.661 14.774 124.395 14.8039C124.275 14.8167 124.206 14.7847 124.125 14.7558C124.096 14.7462 124.066 14.7249 124.041 14.726C123.773 14.7462 123.505 14.7708 123.237 14.7911C123.212 14.7932 123.182 14.7719 123.153 14.7623C123.098 14.743 123.046 14.7142 122.985 14.7078C122.922 14.7014 122.853 14.7174 122.783 14.7227C122.615 14.7366 122.615 14.7356 122.42 14.6726C122.393 14.664 122.359 14.6523 122.332 14.6544C122.064 14.6758 121.794 14.6939 121.528 14.7249C121.375 14.742 121.271 14.711 121.164 14.6662C121.141 14.6566 121.103 14.6523 121.074 14.6544C120.771 14.679 120.471 14.7067 120.168 14.7313C120.105 14.7366 120.044 14.7185 119.993 14.6907C119.912 14.6469 119.816 14.6523 119.715 14.6619C119.481 14.6843 119.479 14.6832 119.341 14.632C119.312 14.6213 119.288 14.6074 119.257 14.6021C119.229 14.5968 119.192 14.6 119.162 14.6021C119.028 14.6128 118.894 14.6245 118.76 14.6363C118.625 14.648 118.489 14.6544 118.357 14.6726C118.195 14.695 118.117 14.6256 118.003 14.5936C117.837 14.6074 117.666 14.616 117.502 14.6384C117.376 14.6555 117.317 14.6085 117.233 14.584C117.205 14.5754 117.174 14.5573 117.148 14.5594C116.845 14.5829 116.542 14.6085 116.241 14.6373C116.168 14.6437 116.12 14.6352 116.059 14.6096C115.922 14.5519 115.916 14.5541 115.689 14.5754C115.589 14.585 115.494 14.5936 115.408 14.5498C115.333 14.5103 115.242 14.5007 115.134 14.5135C115.002 14.5295 114.866 14.538 114.731 14.5487C114.597 14.5605 114.463 14.5765 114.329 14.5818C114.221 14.5872 114.156 14.537 114.071 14.5114C114.045 14.5039 114.008 14.5028 113.978 14.5049C113.843 14.5146 113.705 14.522 113.575 14.5402C113.417 14.5626 113.329 14.5039 113.217 14.4697C113.193 14.4622 113.152 14.4665 113.122 14.4697C112.886 14.4889 112.652 14.5103 112.417 14.5306C112.333 14.5017 112.248 14.474 112.165 14.4452C112.031 14.4558 111.896 14.4676 111.762 14.4783C111.661 14.4868 111.557 14.49 111.462 14.506C111.338 14.5274 111.277 14.4772 111.193 14.4526C111.165 14.4441 111.134 14.4259 111.108 14.4281C110.939 14.4398 110.771 14.4526 110.604 14.4708C110.445 14.4889 110.382 14.3928 110.252 14.3939C110.118 14.395 109.98 14.4089 109.85 14.4281C109.7 14.4505 109.594 14.4163 109.486 14.3704C109.464 14.3608 109.425 14.3555 109.397 14.3576C109.228 14.3704 109.061 14.3864 108.893 14.3993C108.864 14.4014 108.83 14.3961 108.801 14.3897C108.48 14.3267 108.48 14.3256 108.34 14.3384C108.24 14.3469 108.139 14.3576 108.037 14.363C108.009 14.3651 107.974 14.3555 107.948 14.3469C107.736 14.2818 107.736 14.2808 107.584 14.2936C107.45 14.3053 107.316 14.317 107.181 14.3288C107.098 14.3 107.013 14.2722 106.929 14.2434C106.763 14.2573 106.592 14.2679 106.427 14.2872C106.35 14.2957 106.299 14.2925 106.241 14.2658C106.167 14.2338 106.094 14.1964 105.972 14.2146C105.842 14.2338 105.704 14.2359 105.572 14.2519C105.413 14.2711 105.348 14.174 105.22 14.1751C105.086 14.1761 104.948 14.19 104.818 14.2092C104.668 14.2316 104.562 14.1975 104.454 14.1516C104.432 14.142 104.393 14.1366 104.365 14.1388C103.995 14.1697 103.627 14.2007 103.257 14.2338C103.03 14.2541 103.03 14.2551 102.597 14.1964C102.566 14.1921 102.534 14.1879 102.503 14.19C102.369 14.1996 102.231 14.2071 102.101 14.2252C101.942 14.2477 101.855 14.19 101.743 14.1548C101.719 14.1473 101.68 14.1516 101.648 14.1537C101.546 14.1612 101.446 14.1708 101.345 14.1793C101.211 14.1911 101.076 14.2028 100.942 14.2146C100.859 14.1868 100.774 14.158 100.69 14.1302C100.524 14.1441 100.353 14.1516 100.188 14.174C100.062 14.1911 100.003 14.1462 99.9201 14.1206C99.8916 14.1121 99.8612 14.0939 99.8347 14.095C99.5319 14.1185 99.2291 14.143 98.9283 14.1729C98.8044 14.1857 98.7474 14.1377 98.6641 14.1131C98.6357 14.1057 98.6032 14.0918 98.5767 14.0939C98.3755 14.1089 98.1744 14.127 97.9732 14.1452C97.8594 14.1558 97.8593 14.1558 97.6114 14.0896C97.583 14.0822 97.5504 14.0747 97.522 14.0768C96.8839 14.1302 96.2477 14.1868 95.6096 14.2402C95.5445 14.2455 95.4856 14.2295 95.4348 14.2007C95.382 14.1719 95.323 14.1569 95.258 14.1622C94.9897 14.1847 94.7194 14.205 94.4532 14.2327C94.3435 14.2445 94.2561 14.2306 94.1809 14.1932C94.1239 14.1654 94.0711 14.1548 94 14.1612C93.8659 14.174 93.7317 14.1847 93.5976 14.1964C93.4635 14.2081 93.3294 14.2199 93.1952 14.2316C93.0611 14.2434 92.9249 14.2498 92.7928 14.2679C92.6302 14.2904 92.551 14.2242 92.4392 14.1911C92.238 14.2071 92.0368 14.2231 91.8376 14.2402C91.5693 14.2626 91.3011 14.2872 91.0328 14.3085C91.0084 14.3106 90.978 14.2914 90.9495 14.2818C90.8662 14.2551 90.8052 14.2178 90.6812 14.2295C90.0797 14.2861 89.4741 14.3341 88.8705 14.3897C88.7445 14.4014 88.6896 14.3555 88.6042 14.3309C88.5758 14.3235 88.5433 14.3085 88.5169 14.3106C88.1815 14.3373 87.8462 14.3672 87.5109 14.396C87.3747 14.4078 87.3747 14.4078 87.1471 14.3416C87.1207 14.3341 87.0861 14.3245 87.0576 14.3267C86.6207 14.363 86.1858 14.4014 85.7488 14.4388C85.6838 14.4441 85.6249 14.4292 85.5721 14.4003C85.5212 14.3715 85.4603 14.3555 85.3973 14.3608C84.9949 14.395 84.5904 14.4281 84.1901 14.4654C84.0824 14.4761 83.9929 14.4665 83.9157 14.4281C83.8608 14.4003 83.806 14.3886 83.7369 14.395C83.1333 14.4473 82.5297 14.4975 81.9261 14.553C81.8102 14.5637 81.729 14.5434 81.6558 14.5082C81.5969 14.4804 81.546 14.4751 81.4729 14.4793C81.3956 14.4847 81.3489 14.4964 81.3063 14.5284C81.2514 14.5701 81.2168 14.6224 81.0868 14.6256C80.9526 14.6288 80.8165 14.6416 80.6844 14.6598C80.5584 14.6779 80.4994 14.6299 80.4202 14.601C80.3612 14.5808 80.3064 14.5775 80.2312 14.5872C80.1621 14.5957 80.1194 14.6138 80.0787 14.648C79.9893 14.7206 79.9812 14.7206 79.8714 14.6747C79.8125 14.6501 79.7596 14.6309 79.6946 14.6352C79.4263 14.6565 79.1581 14.68 78.8898 14.7046C78.7354 14.7185 78.7334 14.7206 78.6175 14.6672C78.5606 14.6405 78.5057 14.6277 78.4387 14.6341C77.7009 14.6982 76.9632 14.7601 76.2255 14.8274C76.1117 14.8381 76.0345 14.8156 75.9532 14.7836C75.9267 14.7729 75.9003 14.758 75.8699 14.7537C75.8394 14.7494 75.8048 14.7537 75.7723 14.7558C75.2358 14.8017 74.6972 14.8455 74.1627 14.8968C74.0408 14.9085 73.9758 14.8744 73.8924 14.8466C73.864 14.837 73.8396 14.822 73.8091 14.8178C73.7786 14.8146 73.742 14.822 73.7095 14.8252C73.173 14.8711 72.6344 14.9149 72.0999 14.9662C71.9719 14.9779 71.917 14.9331 71.8337 14.9096C71.8052 14.901 71.7748 14.885 71.7483 14.8872C71.5797 14.8989 71.413 14.9149 71.2443 14.9288C70.8419 14.964 70.4395 14.9971 70.0371 15.0334C69.8827 15.0473 69.8156 14.9523 69.6855 14.9566C69.5169 14.9619 69.3502 14.9832 69.1815 14.9982C69.0474 15.0099 68.9133 15.0206 68.7791 15.0334C68.647 15.0452 68.647 15.0452 68.3178 14.9832C68.2893 14.9779 68.2548 14.9704 68.2264 14.9726C67.7569 15.0121 67.2854 15.0516 66.818 15.0943C66.7103 15.1039 66.6208 15.0986 66.5436 15.0591C66.4887 15.0313 66.4318 15.0174 66.3648 15.0238C65.6596 15.0847 64.9564 15.1455 64.2512 15.2053C64.2247 15.2075 64.1902 15.1968 64.1638 15.1882C64.1069 15.169 64.052 15.1466 63.9971 15.1263C63.9565 15.1509 63.9037 15.1733 63.8773 15.201C63.8407 15.2384 63.7919 15.2491 63.7147 15.2555C63.6374 15.2619 63.5887 15.2598 63.5277 15.232C63.4545 15.1978 63.3793 15.1711 63.2594 15.1818C62.5217 15.2491 61.7839 15.3099 61.0462 15.3761C60.9243 15.3868 60.8674 15.3398 60.7821 15.3153C60.7536 15.3078 60.7211 15.2961 60.6946 15.2982C60.3918 15.3228 60.091 15.3494 59.7882 15.3751C58.9489 15.4477 58.1096 15.5171 57.2723 15.5939C57.1199 15.6078 57.0162 15.5811 56.9085 15.5352C56.8861 15.5256 56.8475 15.5203 56.8191 15.5224C55.6444 15.6228 54.4697 15.7242 53.2971 15.8256C53.2341 15.8309 53.1731 15.8139 53.1223 15.7861C53.0694 15.7573 53.0105 15.7434 52.9455 15.7487C52.409 15.7946 51.8725 15.8406 51.3359 15.8875C51.2018 15.8993 51.1997 15.9003 51.0616 15.8491C51.0331 15.8384 51.0026 15.8181 50.9803 15.8203C50.9335 15.8256 50.8888 15.8523 50.8563 15.8886C50.8238 15.927 50.773 15.9377 50.6978 15.9452C50.6205 15.9526 50.5697 15.9494 50.5108 15.9238C50.4356 15.8918 50.3665 15.8608 50.2446 15.8715C48.702 16.0082 47.1595 16.1395 45.617 16.2751C45.493 16.2857 45.4361 16.2409 45.3508 16.2164C45.3223 16.2089 45.2939 16.1982 45.2634 16.1961C45.2309 16.1939 45.1963 16.2003 45.1638 16.2035C42.6478 16.4203 40.1319 16.6381 37.6159 16.8548C37.4655 16.8676 37.4675 16.8676 37.3029 16.9658C37.2826 16.9776 37.2561 16.9936 37.2277 16.9957C36.4574 17.064 35.6852 17.1302 34.9129 17.1964C34.5776 17.2253 34.2422 17.2552 33.9069 17.2829C33.787 17.2925 33.787 17.2925 33.5005 17.4078C33.4761 17.4174 33.4476 17.4302 33.4191 17.4324C32.0778 17.5488 30.7365 17.6651 29.3931 17.7794C29.2875 17.7879 29.2021 17.8071 29.1533 17.8584C29.1188 17.8947 29.0741 17.916 29.007 17.9224C28.0681 18.0036 27.1292 18.0858 26.1882 18.1648C26.0765 18.1744 26.0094 18.2043 25.9545 18.2491C25.9362 18.2641 25.9199 18.2811 25.8935 18.2918C25.8691 18.3014 25.8326 18.3046 25.8021 18.3078C24.9973 18.3772 24.1925 18.4488 23.3857 18.515C23.2658 18.5246 23.217 18.5641 23.1581 18.6057C23.1377 18.6196 23.1235 18.6388 23.0971 18.6484C23.0707 18.6569 23.032 18.6569 22.9995 18.6591C22.3289 18.7167 21.6582 18.7755 20.9876 18.8331C20.8575 18.8278 20.829 18.8897 20.766 18.9271C20.7437 18.9399 20.7275 18.9569 20.701 18.9655C20.6726 18.974 20.636 18.973 20.6014 18.9751C20.0649 19.021 19.5284 19.0701 18.9898 19.1128C18.8658 19.1224 18.8414 19.1769 18.7744 19.2142C18.752 19.226 18.7297 19.2441 18.7033 19.2473C18.3679 19.2783 18.0326 19.3071 17.6973 19.3349C17.5855 19.3445 17.5855 19.3434 17.3884 19.4491C17.366 19.4609 17.3396 19.4737 17.3111 19.4769C16.8091 19.5217 16.3051 19.5644 15.8011 19.6082C15.7361 19.6135 15.6914 19.6392 15.6589 19.6755C15.6264 19.7118 15.5796 19.7352 15.5146 19.7406C15.1122 19.7758 14.7098 19.8121 14.3074 19.8441C14.1956 19.8527 14.1225 19.8794 14.0737 19.9274C14.0371 19.9637 13.9924 19.9819 13.9213 19.9883C13.5189 20.0224 13.1165 20.0598 12.712 20.0897C12.5942 20.0982 12.5332 20.1345 12.4844 20.1794C12.4458 20.2157 12.4011 20.2285 12.3259 20.2349C11.5882 20.2968 10.8484 20.3587 10.1127 20.4271C9.98876 20.4388 9.92574 20.4014 9.84445 20.3747C9.72861 20.3374 9.62093 20.2968 9.62093 20.2135C9.62093 20.2007 9.58637 20.1858 9.56198 20.1751C9.38111 20.095 9.3811 20.095 9.35265 20.0096C9.33639 19.9573 9.3181 19.9039 9.30388 19.8506C9.27746 19.763 9.2124 19.7406 9.02543 19.7566C8.95836 19.7619 8.8913 19.7694 8.82423 19.7737C8.72465 19.7811 8.64947 19.7459 8.63117 19.6819C8.62101 19.6466 8.60884 19.6114 8.59868 19.5762C8.70029 19.5676 8.69823 19.5666 8.87708 19.4374C8.95227 19.3829 8.9523 19.3829 8.80801 19.3285C8.75314 19.3082 8.70028 19.2858 8.64135 19.2666C8.61493 19.258 8.58039 19.2527 8.55194 19.2548C8.38326 19.2676 8.21661 19.2826 8.04996 19.2975C7.7817 19.321 7.78167 19.321 7.50934 19.2121C7.48699 19.2036 7.45243 19.1876 7.4565 19.179C7.47885 19.1395 7.53372 19.1224 7.60282 19.1182C7.70443 19.1117 7.80401 19.1011 7.90359 19.0925C7.97066 19.0872 8.03772 19.0808 8.10479 19.0755C8.16779 19.0349 8.23286 18.9954 8.2918 18.9537C8.38528 18.8897 8.38525 18.8875 8.25721 18.8427C8.17592 18.8128 8.08853 18.7861 8.00521 18.7584C7.90563 18.7669 7.80402 18.7765 7.70443 18.784C7.57843 18.7936 7.52762 18.7733 7.4951 18.7039C7.46665 18.6431 7.5012 18.5908 7.59875 18.5779C7.69833 18.5651 7.79186 18.5566 7.84267 18.5021C7.89144 18.4498 7.97678 18.4295 8.08246 18.4253C8.14953 18.4221 8.21659 18.4146 8.28366 18.4082C8.37105 18.3997 8.4178 18.3452 8.39951 18.2843C8.38935 18.2448 8.36902 18.2117 8.28976 18.2032C7.93817 18.1658 7.93409 18.1669 7.75931 18.0943C7.74305 18.0879 7.73089 18.0687 7.73698 18.0591C7.74714 18.0431 7.7695 18.0196 7.79389 18.0164C8.02761 17.9929 8.26131 17.9715 8.49503 17.9555C8.57225 17.9502 8.62917 17.9427 8.65559 17.9032C8.69217 17.8487 8.67591 17.7986 8.60478 17.7612C8.58242 17.7495 8.54581 17.7345 8.52142 17.7356C8.25316 17.7548 7.98694 17.7794 7.71867 17.7986C7.69429 17.8007 7.6496 17.7826 7.63944 17.7687C7.61911 17.7431 7.64958 17.7089 7.72071 17.6971C7.81419 17.6811 7.90971 17.6801 7.97271 17.6267C8.0601 17.5509 8.1678 17.4815 8.26535 17.4089C8.28161 17.3961 8.30806 17.3715 8.30197 17.3694C8.25116 17.3459 8.19221 17.3277 8.13937 17.3053C8.04995 17.268 8.04993 17.2157 8.07026 17.1655C8.08652 17.1249 8.14748 17.1089 8.22268 17.1089C8.2552 17.1089 8.29584 17.1089 8.32226 17.0993C8.39136 17.0758 8.41372 17.0459 8.37917 17.0235C8.35885 17.0107 8.32229 16.9925 8.2979 16.9947C7.86299 17.0299 7.42601 17.064 6.99313 17.1078C6.86509 17.1206 6.8062 17.0801 6.72897 17.0512C6.67003 17.0288 6.61513 17.0203 6.54196 17.0363C6.47287 17.0512 6.40582 17.0427 6.36314 17.0075C6.3286 16.9786 6.38955 16.9541 6.55417 16.9263C6.58465 16.921 6.61919 16.9178 6.64154 16.9071C6.87729 16.7918 6.87728 16.7907 7.03987 16.7758C7.19839 16.7619 7.19842 16.7608 7.28175 16.6989C7.32036 16.6701 7.36301 16.6413 7.39959 16.6114C7.41381 16.5996 7.43823 16.5783 7.4301 16.5719C7.38539 16.5388 7.3244 16.5313 7.25327 16.5388C7.09475 16.5569 6.90781 16.542 6.82448 16.6434C6.79196 16.6818 6.74115 16.6925 6.66799 16.6989C5.9323 16.7608 5.19658 16.827 4.45886 16.8868C4.33895 16.8964 4.28411 16.9359 4.23737 16.9797C4.19672 17.016 4.152 17.0267 4.07477 17.0331C3.99755 17.0395 3.93655 17.0427 3.89184 17.0075C3.86542 16.9861 3.88778 16.9562 3.94875 16.9263C4.03614 16.8836 4.01987 16.8302 3.99142 16.7801C3.97109 16.747 3.90809 16.7235 3.84103 16.7256C3.74145 16.7299 3.64595 16.7416 3.56263 16.6989C3.51385 16.6744 3.45287 16.6573 3.398 16.6359C3.29232 16.5922 3.18664 16.5473 3.03828 16.5761C2.93666 16.5655 2.86553 16.527 2.78424 16.4971C2.64808 16.448 2.63588 16.4406 2.73343 16.3882C2.84318 16.3295 2.75781 16.2526 2.81877 16.195C2.88381 16.1331 2.97326 16.0786 3.05252 16.021C3.07284 16.006 3.09114 15.9922 3.11146 15.9772C3.06472 15.9559 3.02205 15.9292 2.96718 15.9142C2.89605 15.895 2.85946 15.8715 2.86353 15.8053C2.8493 15.7957 2.85536 15.8203 2.87162 15.8267C2.88991 15.8331 2.93465 15.8277 2.95701 15.8203C3.01391 15.8 3.04233 15.7733 3.02811 15.7509C3.01998 15.7391 2.98139 15.7242 2.95701 15.7242C2.9123 15.7242 2.87369 15.7477 2.8615 15.8053C2.63388 15.8491 2.39809 15.8704 2.16235 15.8875C2.13796 15.8897 2.10749 15.8683 2.07904 15.8576C1.98555 15.8213 1.98554 15.8224 1.71118 15.8117C1.68273 15.8107 1.64414 15.7957 1.62991 15.7808C1.57097 15.7156 1.57302 15.6441 1.54457 15.5747C1.59741 15.5299 1.65021 15.4861 1.70508 15.4423C1.81482 15.3537 1.95712 15.2758 2.04247 15.1786C2.02418 15.1263 1.99979 15.074 2.08921 15.0313C2.34325 14.9779 2.34123 14.9779 2.41033 14.9267C2.60746 14.7815 2.80255 14.6352 3.00781 14.4921C3.06269 14.4548 3.06269 14.4345 2.96514 14.4185C2.93466 14.4142 2.9021 14.4131 2.86958 14.4153C2.76797 14.4227 2.66635 14.442 2.56677 14.4377C2.46719 14.4345 2.39403 14.3875 2.31273 14.3587C2.22941 14.3288 2.14609 14.2978 2.06277 14.2669C1.96725 14.2701 1.87175 14.3 1.77623 14.2519C1.70307 14.2146 1.61162 14.1879 1.52829 14.1569C1.5913 14.0758 1.70919 14.0138 1.80064 13.9423C1.88396 13.8772 1.88595 13.8783 2.1095 13.8281C2.21518 13.8046 2.25177 13.6839 2.16235 13.6487C2.05463 13.606 1.94085 13.5665 1.8311 13.5259C1.73559 13.5291 1.63806 13.558 1.5466 13.5099C1.47547 13.4736 1.39416 13.4491 1.27629 13.4629C1.07713 13.4864 0.873901 13.4982 0.672703 13.5174C0.603605 13.5238 0.528388 13.5195 0.497904 13.4832C0.477581 13.4576 0.536521 13.4224 0.603587 13.4149C0.705202 13.4042 0.796646 13.3914 0.847453 13.338C0.896229 13.2847 0.98564 13.2686 1.09132 13.2612C1.11977 13.259 1.15231 13.2462 1.16654 13.2334C1.2397 13.1715 1.321 13.1181 1.47749 13.1202C1.54252 13.0989 1.57705 13.0722 1.55672 13.0466C1.54453 13.0327 1.50187 13.0146 1.47749 13.0167C1.30881 13.0274 1.14013 13.038 0.975514 13.0573C0.898287 13.0658 0.839318 13.0679 0.790543 13.0359C0.755994 13.0145 0.774283 12.9857 0.839316 12.9548C0.896221 12.9281 0.912497 12.8971 0.908432 12.8608C0.898271 12.7765 0.83729 12.7519 0.642189 12.7572C0.50196 12.7615 0.467409 12.7476 0.436925 12.675C0.428796 12.658 0.408508 12.6345 0.422734 12.6227C0.510123 12.5501 0.567032 12.4605 0.731648 12.4263C0.796682 12.4135 0.865752 12.4135 0.906398 12.3857C0.947044 12.358 0.983643 12.3259 1.02632 12.2992C1.07916 12.2672 1.11571 12.2373 1.09132 12.217C1.05067 12.1807 0.985662 12.1775 0.910467 12.1903C0.845433 12.201 0.776337 12.2021 0.709271 12.2085C0.589365 12.2202 0.491837 12.1925 0.47761 12.1455C0.438997 12.0217 0.398339 11.8989 0.36379 11.775C0.359725 11.7601 0.369859 11.7409 0.386117 11.7281C0.443022 11.6832 0.504014 11.6405 0.562951 11.5967C0.632049 11.5466 0.741812 11.5562 0.835297 11.5466C0.967397 11.5327 0.967351 11.5337 1.14416 11.4313C1.21326 11.3907 1.33317 11.4067 1.4043 11.3704C1.42666 11.3587 1.46121 11.3394 1.45511 11.3288C1.44698 11.3149 1.40636 11.3042 1.37587 11.2978C1.34742 11.2914 1.31288 11.2882 1.28239 11.2914C0.912515 11.3224 0.544678 11.3555 0.1748 11.3854C0.111798 11.3907 0.0426982 11.3672 0.0203429 11.3341C-0.00201245 11.3031 0.0040646 11.2658 0 11.2305C0.0589367 11.1868 0.125977 11.1462 0.176784 11.0992C0.215398 11.0629 0.260117 11.0469 0.337344 11.0448C0.438959 11.0416 0.538552 11.0288 0.652361 11.0192C0.86372 10.8633 1.071 10.6999 1.29862 10.5441C1.39007 10.4811 1.36775 10.417 1.38604 10.3498C1.40433 10.2878 1.54049 10.2974 1.63194 10.2793C1.70511 10.2643 1.72946 10.2302 1.70101 10.2067C1.68475 10.1928 1.64819 10.1768 1.61974 10.1768C1.55267 10.1768 1.48561 10.1864 1.41854 10.1917C1.35148 10.1971 1.27425 10.1939 1.21938 10.212C1.16654 10.2291 1.13197 10.2654 1.09742 10.2964C1.05881 10.3305 1.00804 10.3423 0.930809 10.3444C0.831227 10.3466 0.73165 10.3562 0.632067 10.3636C0.522323 10.322 0.40849 10.2814 0.302811 10.2377C0.282488 10.2291 0.278401 10.2046 0.280434 10.1886C0.284498 10.1469 0.254022 10.1213 0.186956 10.101C0.130051 10.0839 0.0833045 10.0594 0.0304647 10.038C0.0711107 10.0092 0.115837 9.98142 0.148354 9.95046C0.219484 9.88533 0.308916 9.83837 0.46337 9.8405C0.524339 9.79887 0.573101 9.74762 0.652361 9.71879C0.727556 9.69104 0.855597 9.71878 0.912501 9.6558C0.940953 9.62483 0.983655 9.5896 1.03853 9.57679C1.12592 9.55651 1.23972 9.56719 1.29053 9.50741C1.32102 9.47324 1.36571 9.44228 1.42464 9.43373C1.49171 9.42412 1.56079 9.422 1.60957 9.40171C1.63599 9.39104 1.66444 9.37395 1.66444 9.359C1.66444 9.3494 1.62383 9.33445 1.59538 9.32804C1.56896 9.32057 1.53437 9.31523 1.50388 9.31737C1.40227 9.32377 1.30269 9.33551 1.20107 9.34192C1.17262 9.34406 1.14011 9.33658 1.10963 9.33018C1.02021 9.3131 1.02629 9.29175 1.09742 9.25331C1.16855 9.21594 1.21939 9.16789 1.27832 9.12412C1.34336 9.11665 1.42464 9.11985 1.46935 9.09957C1.54454 9.06647 1.59737 9.01842 1.65834 8.97679C1.72541 8.97038 1.7945 8.96825 1.8575 8.95651C1.88392 8.95224 1.89612 8.92875 1.91848 8.91487C1.95913 8.88818 1.9937 8.84975 2.04857 8.83694C2.138 8.81772 2.24774 8.82519 2.30058 8.76647C2.33106 8.7323 2.37779 8.69601 2.43469 8.69388C2.59321 8.68961 2.66028 8.63088 2.74157 8.57536C2.80254 8.53372 2.93261 8.55508 2.99968 8.51344C3.04439 8.48675 3.07692 8.45365 3.12164 8.42803C3.13993 8.41735 3.17853 8.41202 3.20901 8.40882C3.37566 8.3928 3.54433 8.38105 3.71098 8.36397C3.7374 8.36077 3.76181 8.34476 3.78213 8.33195C3.82481 8.30419 3.8512 8.26575 3.90404 8.2476C3.95688 8.22945 4.03207 8.22946 4.0971 8.22412C4.30643 8.20811 4.3227 8.21237 4.41822 8.12162C4.49545 8.04795 4.68447 8.10027 4.74748 8.01913C4.78406 7.97216 4.85109 7.93372 4.971 7.92839C5.13968 7.92091 5.30632 7.90063 5.47501 7.88675C5.6254 7.87394 5.62337 7.87393 5.78595 7.77464C5.85912 7.7298 5.96685 7.73621 6.06237 7.72767C6.16398 7.71913 6.25746 7.70632 6.30623 7.65294C6.35501 7.60063 6.44442 7.58354 6.54807 7.57606C6.64358 7.56859 6.75132 7.57394 6.82652 7.53123C7.00942 7.42874 7.00739 7.42767 7.13543 7.41699C7.33663 7.39991 7.53782 7.38283 7.73902 7.36468C7.87315 7.35293 8.01337 7.3508 8.13937 7.32731C8.23083 7.31023 8.27146 7.25045 8.3304 7.20881C8.49705 7.19279 8.66369 7.17677 8.83034 7.16183C9.06405 7.14047 9.29979 7.12126 9.53554 7.10098C9.63715 7.06041 9.65141 6.97073 9.82212 6.96646C9.92374 6.96432 10.0233 6.95044 10.1249 6.9419C10.2936 6.92696 10.4603 6.90774 10.6289 6.90026C10.757 6.89493 10.7793 6.83727 10.8464 6.80097C10.8687 6.78816 10.8891 6.77001 10.9155 6.76681C11.1797 6.73692 11.452 6.73051 11.7101 6.68674C11.7365 6.68247 11.7609 6.66005 11.767 6.64403C11.7711 6.63549 11.7365 6.61948 11.7142 6.61201C11.6877 6.60347 11.6532 6.59493 11.6247 6.59706C10.7854 6.66859 9.94609 6.74119 9.10675 6.81272C8.98888 6.8234 8.98888 6.82233 8.70232 6.93976C8.67794 6.94937 8.64945 6.96005 8.61897 6.96325C8.48484 6.97606 8.34868 6.98354 8.21658 6.99956C8.10886 7.01237 8.01947 6.99955 7.94225 6.96111C7.88737 6.93335 7.83044 6.92482 7.76134 6.92695C7.68412 6.93016 7.63334 6.9419 7.58863 6.97073C7.52969 7.01023 7.4992 7.06147 7.37523 7.07215C6.80415 7.11806 6.23304 7.1693 5.664 7.21841C5.58474 7.20347 5.54613 7.18105 5.56645 7.15436C5.57864 7.13834 5.60304 7.11699 5.62743 7.11486C5.86114 7.09244 6.09688 7.07322 6.3306 7.05187C6.36311 7.04867 6.40782 7.05079 6.42611 7.04012C6.51553 6.99207 6.54808 6.91414 6.71676 6.9088C6.81431 6.9056 6.91388 6.88959 7.00737 6.87464C7.03379 6.87037 7.05818 6.84795 7.06428 6.83193C7.06631 6.82339 7.03379 6.80737 7.0094 6.7999C6.91998 6.76894 6.81636 6.80632 6.72693 6.78497C6.69645 6.77749 6.65374 6.76681 6.64765 6.754C6.64358 6.74226 6.67814 6.72304 6.70252 6.71129C6.72488 6.70062 6.75535 6.69101 6.78583 6.68781C7.05409 6.66325 7.3224 6.63763 7.59066 6.61841C7.70041 6.61094 7.77762 6.58424 7.82639 6.53513C7.86297 6.49883 7.90768 6.47962 7.97678 6.47428C8.44624 6.43478 8.91569 6.39101 9.38718 6.35471C9.50506 6.34617 9.56605 6.31094 9.61483 6.26503C9.65344 6.22873 9.69816 6.21592 9.77335 6.20951C10.446 6.154 11.1147 6.09208 11.7873 6.0387C11.9113 6.02909 11.9479 5.98318 12.0109 5.94368C12.0333 5.9298 12.0475 5.91272 12.0759 5.90417C12.1044 5.89563 12.1409 5.89669 12.1755 5.89456C12.712 5.84865 13.2486 5.79955 13.7871 5.75684C13.9131 5.74723 13.9375 5.69385 14.0025 5.65648C14.0249 5.64473 14.0452 5.62552 14.0716 5.62232C14.474 5.58602 14.8764 5.55186 15.2788 5.51663C15.5471 5.49314 15.8153 5.46965 16.0836 5.44723C16.2157 5.43655 16.2157 5.43548 16.3946 5.33405C16.4149 5.32231 16.4434 5.30843 16.4698 5.30523C17.242 5.2369 18.0123 5.17179 18.7845 5.10453C18.8496 5.09919 18.8963 5.07462 18.9288 5.03832C18.9613 5.00202 19.0081 4.97747 19.0711 4.97213C19.6747 4.91875 20.2783 4.86644 20.8839 4.81626C20.9937 4.80772 21.0709 4.78209 21.1197 4.73405C21.1562 4.69775 21.2009 4.67854 21.27 4.6732C21.8736 4.62195 22.4773 4.5675 23.0829 4.51839C23.1987 4.50878 23.2556 4.47248 23.3125 4.42978C23.3328 4.41483 23.3491 4.39028 23.3735 4.38814C23.6743 4.35825 23.973 4.32728 24.2758 4.307C24.4018 4.29846 24.4445 4.25362 24.4953 4.21091C24.536 4.17675 24.5827 4.16501 24.66 4.16074C24.8286 4.15113 24.9953 4.13298 25.1599 4.11484C25.1843 4.11163 25.2148 4.08814 25.2168 4.0732C25.2209 4.04544 25.1741 4.02622 25.0969 4.01661C24.2921 4.086 23.4853 4.1554 22.6805 4.22479C22.5484 4.23653 22.5484 4.23654 22.3695 4.33797C22.3492 4.34971 22.3207 4.36359 22.2923 4.36679C21.52 4.43405 20.7498 4.50025 19.9775 4.56751C19.9125 4.57284 19.8658 4.5974 19.8332 4.6337C19.8007 4.67 19.7539 4.69455 19.6909 4.69989C18.9532 4.76395 18.2155 4.82908 17.4757 4.88993C17.366 4.89847 17.2888 4.92302 17.24 4.97213C17.2034 5.00843 17.1587 5.02765 17.0896 5.03299C16.3844 5.09278 15.6812 5.15576 14.974 5.21341C14.9028 5.21875 14.85 5.18779 14.8541 5.15896C14.8561 5.14402 14.8866 5.11947 14.911 5.11734C15.2788 5.0821 15.6447 5.0458 16.0145 5.01911C16.1385 5.01057 16.1751 4.96359 16.2381 4.92409C16.2584 4.91021 16.2747 4.89206 16.3011 4.88459C16.3295 4.87605 16.3661 4.87712 16.4007 4.87498C17.2725 4.79918 18.1444 4.72232 19.0183 4.65078C19.1443 4.64011 19.1686 4.58779 19.2337 4.55042C19.256 4.53761 19.2764 4.5184 19.3028 4.51626C19.5711 4.49064 19.8393 4.46822 20.1076 4.4458C20.577 4.40523 21.0465 4.36466 21.518 4.32409C21.6541 4.31234 21.6541 4.31234 21.8289 4.21198C21.8492 4.20024 21.8777 4.1853 21.9041 4.18316C23.1459 4.07533 24.3876 3.9675 25.6294 3.86074C25.6944 3.8554 25.7411 3.83085 25.7736 3.79455C25.8062 3.75932 25.8529 3.73369 25.9159 3.72729C27.5946 3.58209 29.2712 3.43689 30.9499 3.29383C31.0597 3.28422 31.1369 3.26179 31.1856 3.21162C31.2202 3.17532 31.2669 3.1561 31.336 3.1497C33.1814 2.99062 35.0267 2.83155 36.8741 2.6714C38.1158 2.56464 39.3575 2.45574 40.5993 2.35112C40.7131 2.34151 40.774 2.30841 40.8309 2.26463C40.8492 2.24969 40.8675 2.22513 40.8919 2.22299C41.1581 2.1963 41.4244 2.17175 41.6906 2.1472C41.7739 2.17602 41.8572 2.20379 41.9406 2.23261C42.0036 2.19204 42.0646 2.1504 42.1276 2.10983C42.53 2.07887 42.9262 2.03083 43.3327 2.01588C43.3591 2.01481 43.3876 2.0351 43.416 2.04578C43.605 2.11304 43.7127 2.1077 43.8326 2.01802C43.8753 1.98599 43.9119 1.95717 43.9769 1.95183C44.1781 1.93261 44.3814 1.9198 44.5806 1.89738C44.6883 1.88563 44.7777 1.89631 44.8549 1.93474C44.9098 1.9625 44.9667 1.97425 45.0338 1.96784C45.4036 1.93582 45.7715 1.90485 46.1414 1.87069C46.1678 1.86855 46.1921 1.8504 46.2125 1.83758C46.2551 1.80983 46.2917 1.77994 46.3324 1.75111C46.3873 1.76926 46.4482 1.78314 46.4929 1.80663C46.5498 1.83439 46.6027 1.83438 46.6799 1.82691C48.1553 1.69773 49.6328 1.57175 51.1083 1.4415C51.2343 1.43082 51.2892 1.47567 51.3745 1.49916C51.403 1.5077 51.4314 1.51837 51.4619 1.5205C51.4944 1.52264 51.529 1.51624 51.5615 1.51304C52.6691 1.41695 53.7767 1.32192 54.8843 1.22584C55.0306 1.21303 55.0307 1.21303 55.2481 1.27922C55.2745 1.28776 55.3091 1.29737 55.3375 1.29417C55.8415 1.25253 56.3455 1.20769 56.8475 1.16499C56.9125 1.15965 56.9674 1.17673 57.0264 1.20128C57.1422 1.24933 57.1503 1.24933 57.2357 1.17887C57.2763 1.14577 57.319 1.12548 57.386 1.11587C57.4592 1.10519 57.5182 1.10841 57.5751 1.12762C57.6564 1.15431 57.7153 1.19915 57.8393 1.1874C58.3758 1.13723 58.9144 1.09559 59.4489 1.04435C59.5708 1.0326 59.6358 1.0689 59.7171 1.09559C59.7456 1.1052 59.772 1.12015 59.8025 1.12335C59.833 1.12655 59.8695 1.11907 59.9021 1.11587C60.5727 1.05822 61.2454 1.00164 61.914 0.939721C62.04 0.927977 62.0949 0.973876 62.1803 0.997364C62.2087 1.00591 62.2412 1.02086 62.2676 1.01872C62.67 0.985628 63.0745 0.950387 63.4769 0.915155C63.6212 0.902344 63.6211 0.903411 63.8406 0.968536C63.8671 0.977077 63.9016 0.98562 63.9301 0.983485C64.3996 0.943982 64.871 0.903412 65.3405 0.862842C65.4848 0.850031 65.4848 0.850034 65.9014 0.90555C65.9319 0.90982 65.9644 0.916235 65.9949 0.914099C66.5314 0.868191 67.07 0.823345 67.6065 0.774234C67.7142 0.764626 67.8036 0.773164 67.8809 0.811599C67.9357 0.839357 67.9926 0.851107 68.0597 0.844701C68.6633 0.792388 69.2689 0.742211 69.8705 0.686695C69.9863 0.676019 70.0615 0.699497 70.1428 0.730458C70.1692 0.741134 70.1957 0.756084 70.2262 0.760355C70.2566 0.764625 70.2912 0.760352 70.3237 0.757149C70.9273 0.704835 71.5329 0.655726 72.1345 0.599142C72.2564 0.587398 72.3214 0.623696 72.4027 0.650386C72.4312 0.659995 72.4617 0.679213 72.486 0.678146C72.7218 0.659996 72.9575 0.643987 73.1912 0.617297C73.3173 0.60235 73.3721 0.651452 73.4575 0.67494C73.4859 0.682413 73.5184 0.698435 73.5449 0.6963C74.0489 0.654662 74.5529 0.610893 75.0549 0.566053C75.126 0.559647 75.1788 0.569247 75.2358 0.597005C75.311 0.634372 75.3984 0.649319 75.5081 0.637575C75.7418 0.61302 75.9776 0.595943 76.2133 0.575658C76.3515 0.563914 76.3515 0.563918 76.7742 0.619434C76.8047 0.623704 76.8372 0.630106 76.8677 0.62797C77.2701 0.593806 77.6745 0.560712 78.0749 0.523345C78.1826 0.512669 78.272 0.522275 78.3493 0.560709C78.4041 0.588468 78.459 0.600218 78.5281 0.593812C78.8979 0.561783 79.2658 0.529752 79.6357 0.497723C79.7699 0.485979 79.904 0.465689 80.0381 0.465689C80.1357 0.466757 80.2068 0.518001 80.2942 0.543624C80.3186 0.551097 80.3592 0.542566 80.3917 0.540431C80.8612 0.499861 81.3327 0.462491 81.8001 0.416583C81.922 0.404839 81.9871 0.441136 82.0684 0.467827C82.0968 0.477435 82.1273 0.496654 82.1517 0.495586C82.3204 0.483842 82.487 0.467826 82.6557 0.453947C82.8569 0.436865 83.0601 0.424053 83.2593 0.400566C83.4219 0.381348 83.4828 0.474229 83.6129 0.477432C83.7125 0.480634 83.8141 0.462488 83.9137 0.453947C84.1149 0.436865 84.3161 0.41765 84.5173 0.402703C84.5884 0.397365 84.6433 0.380276 84.6657 0.341841C84.6697 0.334368 84.6352 0.31836 84.6128 0.308752C84.3425 0.199854 84.3425 0.199849 84.0702 0.223336C83.9015 0.238283 83.7348 0.253233 83.5662 0.266044C83.5377 0.268179 83.5052 0.259639 83.4767 0.253233C83.3955 0.235083 83.4036 0.213733 83.4727 0.175299C83.5418 0.136864 83.5946 0.0898928 83.6535 0.0461202C83.7369 0.0738784 83.8182 0.101627 83.9015 0.129385C83.9686 0.124047 84.0356 0.117651 84.1027 0.112312C84.438 0.0845541 84.7734 0.0557262 85.1087 0.0301032C85.1331 0.027968 85.1635 0.0493236 85.192 0.0599998C85.2733 0.0909609 85.3465 0.117644 85.4643 0.1059C85.7651 0.0749393 86.0679 0.0525192 86.3687 0.0258285C86.5008 0.0140847 86.5008 0.0140857 86.7325 0.0802784C86.7589 0.0877518 86.7934 0.0962933 86.8219 0.0941581C87.1247 0.0696027 87.4255 0.0429152 87.7283 0.0172922C87.7933 0.0119541 87.8564 0.0258327 87.9031 0.0567938C87.9214 0.0696053 87.9173 0.0909536 87.9945 0.266044C88.2344 0.408038 88.399 0.393099 88.5656 0.380287C88.6368 0.374949 88.6997 0.369606 88.7465 0.348253C88.7709 0.336509 88.8014 0.319425 88.8014 0.305546C88.8014 0.294869 88.7567 0.277784 88.7282 0.275649C88.527 0.254297 88.336 0.299143 88.1388 0.308752C88.0474 0.313022 87.9681 0.275655 87.9519 0.2148C87.9478 0.197718 87.9417 0.17957 87.9356 0.162488C87.9295 0.145406 87.9255 0.127257 87.9194 0.110175C87.8401 0.104837 87.7934 0.124051 87.7588 0.16035C87.7304 0.190244 87.6897 0.224408 87.6348 0.240422C87.5799 0.257504 87.5048 0.254307 87.4377 0.259645C87.3727 0.264983 87.3015 0.278861 87.2406 0.271387C87.1796 0.262846 87.1308 0.23188 87.0739 0.212663C87.0475 0.203054 87.015 0.18918 86.9886 0.191316C86.7549 0.209465 86.5232 0.227608 86.2915 0.251096C86.1696 0.263907 86.1086 0.219074 86.0314 0.191316C85.9704 0.169963 85.9094 0.175294 85.8992 0.224405C85.8728 0.341844 85.9663 0.390952 86.1736 0.368532C86.3443 0.349315 86.4988 0.346122 86.6329 0.41872C86.6512 0.428329 86.6939 0.432598 86.7203 0.430462C86.8869 0.417651 87.0515 0.401635 87.2182 0.388823C87.2487 0.386688 87.2812 0.390952 87.3097 0.395222C87.7243 0.452874 87.7243 0.453947 87.8645 0.441136C87.9316 0.43473 87.9966 0.429392 87.9905 0.267113C88.1185 0.0930899 88.3218 0.0813481 88.5189 0.0557252C88.6469 0.0397108 88.7018 0.0866883 88.7851 0.111244C88.8135 0.119785 88.8441 0.136864 88.8705 0.134728C89.3074 0.0994967 89.7423 0.0621246 90.1772 0.0226225C90.2504 0.0162168 90.3032 0.0226236 90.3601 0.0503818C90.4333 0.0856134 90.5146 0.108038 90.6304 0.0952267C90.8621 0.0696038 91.0979 0.053593 91.3336 0.0322405C91.4535 0.0215643 91.4535 0.0215534 91.6954 0.0877461C91.7218 0.0952194 91.7563 0.103761 91.7848 0.101626C92.0205 0.0834761 92.2543 0.0610628 92.488 0.0418455C92.553 0.0365074 92.6119 0.0514526 92.6627 0.0802784C92.7135 0.109104 92.7745 0.124049 92.8375 0.118711C93.0733 0.0994941 93.307 0.0781484 93.5407 0.0589312C93.5692 0.0567959 93.6037 0.0642688 93.6301 0.0717421C93.8781 0.137935 93.8781 0.137924 93.9919 0.127248C94.1585 0.111233 94.3292 0.103768 94.4938 0.0824158C94.6544 0.0610633 94.7377 0.12298 94.8475 0.157144C95.1482 0.132589 95.451 0.112309 95.7498 0.0824158C95.8717 0.0696043 95.9368 0.104833 96.0181 0.132591C96.0465 0.1422 96.075 0.162487 96.1014 0.161419C96.203 0.157148 96.3026 0.145407 96.4022 0.136866C96.5018 0.128325 96.6034 0.119785 96.703 0.111244C96.8168 0.142205 96.892 0.214802 97.0546 0.190247C97.1521 0.1753 97.2558 0.172097 97.3553 0.163556C97.4549 0.155015 97.5565 0.146475 97.6561 0.137934C97.7232 0.132596 97.7923 0.129389 97.8573 0.11978C97.9772 0.103766 98.0362 0.156085 98.1215 0.179573C98.15 0.187047 98.1825 0.19985 98.2089 0.197715C98.4101 0.182768 98.6133 0.169957 98.8104 0.145402C98.9629 0.126185 99.0665 0.158218 99.1742 0.203058C99.1966 0.212666 99.2352 0.218004 99.2636 0.215869C99.4994 0.197719 99.7331 0.175293 99.9668 0.156076C100.03 0.150737 100.091 0.167819 100.142 0.195577C100.194 0.224403 100.253 0.238293 100.318 0.232954C100.552 0.213737 100.788 0.192378 101.022 0.173161C101.05 0.171026 101.085 0.179569 101.111 0.18811C101.339 0.254302 101.339 0.255371 101.473 0.242559C101.505 0.239357 101.54 0.237213 101.572 0.23401C101.739 0.219063 101.912 0.213733 102.074 0.18811C102.261 0.159284 102.397 0.195584 102.53 0.256439C102.696 0.243628 102.867 0.236153 103.03 0.2148C103.151 0.198786 103.216 0.239353 103.298 0.266044C103.326 0.275653 103.357 0.29487 103.381 0.292735C103.617 0.274585 103.853 0.258576 104.084 0.231886C104.21 0.216939 104.265 0.264973 104.35 0.289529C104.379 0.29807 104.409 0.313024 104.436 0.310889C104.57 0.302348 104.704 0.28953 104.838 0.277786C104.995 0.263907 104.995 0.264974 105.202 0.330099C105.3 0.36106 105.397 0.336504 105.493 0.32903C105.594 0.320489 105.69 0.314086 105.771 0.357858C105.822 0.385616 105.883 0.402699 105.946 0.398428C106.08 0.38882 106.216 0.379216 106.348 0.363201C106.454 0.35039 106.545 0.358926 106.623 0.398428C106.677 0.426187 106.734 0.440074 106.801 0.433668C107.102 0.408045 107.405 0.381345 107.706 0.356789C107.732 0.354654 107.769 0.364267 107.793 0.373875C107.85 0.393092 107.905 0.41444 107.96 0.435793C108.092 0.426184 108.228 0.421925 108.358 0.406978C108.496 0.392031 108.622 0.386691 108.73 0.445411C108.752 0.458222 108.785 0.476362 108.811 0.475294C108.913 0.471024 109.013 0.460351 109.112 0.45181C109.212 0.443269 109.313 0.434729 109.413 0.426188C109.529 0.452878 109.602 0.529746 109.765 0.505191C109.862 0.490244 109.966 0.487041 110.065 0.4785C110.165 0.469959 110.267 0.460352 110.366 0.452878C110.399 0.450743 110.435 0.445402 110.464 0.449672C110.494 0.453943 110.521 0.468893 110.547 0.479569C110.628 0.51053 110.703 0.541495 110.819 0.523345C110.917 0.508398 111.021 0.505195 111.12 0.495586C111.256 0.483842 111.256 0.483844 111.482 0.551104C111.573 0.578863 111.677 0.542565 111.764 0.566053C111.823 0.582067 111.874 0.608752 111.931 0.626902C111.955 0.634375 111.994 0.637573 112.022 0.635438C112.157 0.625829 112.293 0.616225 112.425 0.600211C112.533 0.5874 112.622 0.600209 112.697 0.638644C112.752 0.666402 112.807 0.678152 112.876 0.671747C113.211 0.641853 113.547 0.616222 113.88 0.583125C113.994 0.571382 114.085 0.589536 114.148 0.62797C114.256 0.694163 114.408 0.616228 114.52 0.669609C114.589 0.702706 114.658 0.741142 114.784 0.725128C115.016 0.69737 115.252 0.682414 115.485 0.663197C115.569 0.692023 115.652 0.720855 115.737 0.749681C115.872 0.737937 116.006 0.726186 116.14 0.71551C116.239 0.706969 116.341 0.697361 116.441 0.689888C116.473 0.687753 116.508 0.683481 116.538 0.688819C116.569 0.694157 116.593 0.70804 116.622 0.718716C116.762 0.771029 116.762 0.772102 116.993 0.75075C117.093 0.741141 117.189 0.734735 117.272 0.77744C117.349 0.816942 117.441 0.824411 117.546 0.812667C117.745 0.791315 117.947 0.775301 118.15 0.760355C118.213 0.755017 118.272 0.773167 118.325 0.800925C118.404 0.844698 118.501 0.840428 118.601 0.828684C118.733 0.813737 118.863 0.798794 118.975 0.858581C118.997 0.871392 119.032 0.889532 119.056 0.888464C119.223 0.879923 119.392 0.873522 119.554 0.853237C119.717 0.832953 119.796 0.899143 119.908 0.931172C120.074 0.917293 120.243 0.903412 120.41 0.889533C120.442 0.88633 120.481 0.876727 120.509 0.882065C120.629 0.904486 120.698 0.984555 120.863 0.96C120.958 0.946121 121.062 0.941855 121.162 0.938653C121.188 0.937585 121.223 0.955726 121.241 0.969605C121.251 0.977078 121.241 0.997362 121.229 1.00804C121.192 1.03793 121.147 1.0657 121.115 1.09666C121.111 1.10093 121.149 1.12014 121.172 1.12868C121.227 1.1479 121.29 1.1447 121.363 1.13616C121.426 1.12869 121.491 1.14363 121.536 1.17566C121.554 1.18847 121.548 1.20982 121.509 1.28029C121.509 1.3326 121.552 1.30911 121.566 1.27494C121.588 1.22583 121.546 1.20982 121.464 1.23651C121.408 1.25573 121.379 1.28349 121.393 1.30591C121.402 1.31765 121.44 1.3326 121.509 1.28029C121.688 1.21623 121.822 1.20449 121.956 1.19275C121.991 1.18954 122.032 1.17886 122.056 1.18527C122.143 1.21089 122.225 1.24186 122.31 1.27068C122.408 1.26428 122.499 1.24825 122.594 1.28989C122.729 1.34861 122.735 1.34327 122.865 1.33153C122.932 1.32513 122.999 1.3198 123.066 1.31446C123.133 1.30912 123.186 1.32513 123.245 1.34969C123.365 1.39986 123.375 1.39986 123.454 1.33153C123.501 1.28989 123.533 1.27602 123.592 1.29524C123.787 1.36036 123.789 1.36463 123.956 1.34541C124.094 1.3294 124.224 1.32513 124.326 1.38598C124.395 1.42869 124.417 1.41908 124.472 1.37424C124.619 1.25573 124.686 1.25786 124.96 1.34327C125.088 1.38384 125.22 1.34008 125.35 1.33474C125.46 1.33047 125.537 1.35608 125.545 1.42335C125.551 1.46498 125.57 1.49488 125.643 1.50876C125.671 1.5141 125.706 1.52157 125.734 1.51943C125.903 1.50662 126.07 1.49167 126.238 1.47673C126.324 1.46925 126.37 1.41908 126.354 1.35289C126.336 1.28243 126.368 1.2568 126.49 1.23651C126.564 1.22477 126.623 1.22691 126.681 1.24613C126.746 1.26748 126.728 1.2867 126.671 1.32513C126.535 1.41908 126.551 1.47672 126.726 1.54185C126.787 1.56427 126.836 1.58456 126.85 1.61766C126.858 1.63474 126.85 1.65716 126.868 1.66997C126.968 1.7415 127.106 1.78742 127.261 1.82158C127.409 1.79275 127.511 1.84079 127.624 1.87922C127.714 1.90912 127.819 1.8835 127.915 1.87282C128.023 1.86108 128.112 1.86962 128.189 1.90912C128.244 1.93688 128.301 1.94968 128.368 1.94435C128.502 1.9326 128.639 1.92513 128.771 1.90805C128.884 1.8931 128.97 1.91446 129.041 1.95076C129.13 1.99667 129.23 1.9657 129.323 1.97211C129.449 1.97958 129.512 2.07459 129.677 2.04897C129.775 2.03402 129.876 2.02869 129.978 2.02442C130.004 2.02335 130.037 2.0415 130.059 2.05431C130.167 2.11303 130.293 2.10983 130.431 2.09275C130.527 2.081 130.62 2.07033 130.713 2.1109C130.868 2.17923 131.039 2.23902 131.201 2.30201C131.224 2.35112 131.207 2.40876 131.323 2.43759C131.384 2.45254 131.441 2.47496 131.488 2.49952C131.545 2.52834 131.598 2.53582 131.671 2.52835C131.803 2.5134 131.941 2.51019 132.071 2.49097C132.191 2.47389 132.266 2.50913 132.339 2.54223C132.398 2.56892 132.453 2.58172 132.524 2.56251C132.597 2.54436 132.65 2.5561 132.709 2.58492C132.793 2.62442 132.799 2.62016 133.075 2.6319C133.104 2.63297 133.138 2.64898 133.154 2.66286C133.162 2.67033 133.144 2.69169 133.13 2.70237C133.112 2.71518 133.083 2.73012 133.057 2.73332C132.756 2.76108 132.453 2.78564 132.152 2.81339C132.122 2.8166 132.089 2.82408 132.067 2.83475C132.043 2.8465 132.012 2.8625 132.012 2.87745C132.012 2.88813 132.053 2.90094 132.081 2.90841C132.171 2.93297 132.276 2.8956 132.364 2.92336C132.423 2.94151 132.471 2.96713 132.53 2.98421C132.555 2.99168 132.593 2.99062 132.624 2.98849C132.725 2.98101 132.825 2.97034 132.927 2.96393C132.955 2.96287 132.988 2.97355 133.014 2.98209C133.209 3.04614 133.209 3.04614 133.378 3.03226C133.445 3.02692 133.516 3.01091 133.579 3.01731C133.64 3.02372 133.693 3.05255 133.748 3.0707C133.862 3.10913 133.969 3.1465 133.977 3.22977C133.981 3.2618 134.048 3.28955 134.116 3.29169C134.181 3.29382 134.25 3.28209 134.317 3.27568C134.475 3.26287 134.475 3.26287 134.681 3.328C134.737 3.34615 134.798 3.34828 134.872 3.3376C134.9 3.33333 134.935 3.33761 134.965 3.34294C135.065 3.35896 135.065 3.37924 135 3.41767C134.908 3.47426 134.916 3.4796 135.172 3.52764C135.27 3.54579 135.345 3.57996 135.426 3.60985C135.558 3.65789 135.556 3.65789 135.469 3.72088C135.449 3.73475 135.43 3.7497 135.41 3.76465C135.351 3.80629 135.304 3.85113 135.183 3.8554C135.048 3.85967 134.914 3.87676 134.78 3.8885C134.65 3.90024 134.616 3.92586 134.628 3.99845C134.642 4.086 134.668 4.09561 134.902 4.09454C134.969 4.09454 135.028 4.10308 135.079 4.13191C135.054 4.16607 135.01 4.19276 134.945 4.19917C134.778 4.21518 134.609 4.22907 134.443 4.24294C134.309 4.25469 134.175 4.26643 134.04 4.27817C133.957 4.28565 133.904 4.34117 133.927 4.40309C133.939 4.43832 133.949 4.47355 133.959 4.50878C133.981 4.57925 134.024 4.5974 134.16 4.5942C134.195 4.59313 134.227 4.58458 134.26 4.58672C134.392 4.59419 134.455 4.6828 134.613 4.66465C134.746 4.6497 134.884 4.6465 135.014 4.62729C135.134 4.61021 135.201 4.64865 135.284 4.67748C135.313 4.68708 135.343 4.70736 135.367 4.70629C135.536 4.69455 135.705 4.68281 135.869 4.66253C135.947 4.65399 135.993 4.66039 136.054 4.68601C136.201 4.74793 136.205 4.74473 136.422 4.72551C136.581 4.71057 136.583 4.7127 136.786 4.77783C136.843 4.79598 136.904 4.79597 136.977 4.78743C137.073 4.77675 137.172 4.75967 137.272 4.77569C137.302 4.77996 137.341 4.79277 137.351 4.80665C137.357 4.81626 137.329 4.83975 137.304 4.84722C137.125 4.90274 136.916 4.89313 136.721 4.91555C136.66 4.92196 136.599 4.90167 136.548 4.87285C136.495 4.84402 136.438 4.83228 136.369 4.83762C136.235 4.84936 136.099 4.85683 135.967 4.87391C135.853 4.88886 135.774 4.8643 135.695 4.83121C135.668 4.82053 135.638 4.80024 135.611 4.80131C135.311 4.82266 135.008 4.84402 134.709 4.87391C134.589 4.88673 134.52 4.85257 134.439 4.82374C134.41 4.81413 134.382 4.79384 134.355 4.79491C134.254 4.79918 134.154 4.81092 134.053 4.81946C133.683 4.85149 133.315 4.88352 132.945 4.91342C132.921 4.91555 132.89 4.89313 132.862 4.88352C132.807 4.8643 132.75 4.84615 132.693 4.828C132.591 4.83654 132.492 4.84722 132.39 4.85362C132.317 4.85789 132.252 4.87285 132.242 4.91342C132.236 4.94011 132.303 4.96466 132.374 4.96252C132.443 4.96039 132.512 4.94758 132.569 4.96145C132.852 5.02978 132.852 5.03085 133.028 5.01697C133.183 5.00416 133.166 4.99348 133.303 5.0522C133.362 5.07782 133.414 5.09278 133.482 5.08637C133.648 5.07142 133.817 5.05647 133.986 5.04366C134.012 5.04153 134.046 5.05221 134.073 5.06075C134.272 5.12481 134.272 5.12694 134.437 5.11092C134.652 5.09171 134.66 5.08637 134.805 5.15149C134.904 5.19633 134.996 5.16537 135.091 5.16324C135.201 5.20487 135.321 5.24225 135.42 5.28922C135.538 5.34474 135.662 5.33512 135.796 5.31911C135.896 5.30736 135.993 5.30309 136.075 5.34686C136.152 5.38743 136.245 5.39171 136.351 5.38104C136.447 5.37143 136.544 5.35114 136.644 5.37462C136.67 5.38103 136.711 5.39705 136.709 5.40666C136.707 5.4216 136.68 5.44296 136.654 5.44937C136.467 5.49314 136.262 5.49207 136.065 5.51235C136.038 5.51555 136.004 5.50381 135.977 5.49527C135.92 5.47605 135.865 5.45363 135.811 5.43335C135.711 5.43975 135.609 5.44188 135.512 5.4547C135.437 5.4643 135.38 5.46325 135.325 5.43762C135.274 5.41414 135.219 5.3853 135.158 5.37783C135.097 5.37036 135.026 5.38637 134.959 5.39278C134.892 5.39918 134.815 5.39598 134.762 5.41306C134.709 5.43014 134.676 5.46751 134.642 5.4974C134.603 5.5305 134.55 5.54118 134.473 5.54439C134.402 5.54759 134.345 5.54331 134.292 5.51342C134.27 5.50061 134.24 5.491 134.209 5.48246C134.181 5.47498 134.148 5.46323 134.122 5.46537C133.819 5.48992 133.518 5.51663 133.215 5.54225C133.065 5.55506 133.067 5.55505 132.754 5.49206C132.725 5.48672 132.691 5.47925 132.662 5.48139C132.494 5.4942 132.327 5.50915 132.158 5.52409C131.988 5.53904 131.99 5.5369 131.699 5.46964C131.646 5.45683 131.569 5.47392 131.506 5.47178C131.374 5.46644 131.309 5.37677 131.155 5.39385C131.022 5.40879 130.884 5.41199 130.752 5.43121C130.632 5.44829 130.563 5.41093 130.482 5.3821C130.453 5.3725 130.423 5.35114 130.398 5.35328C130.096 5.37676 129.795 5.40346 129.393 5.40666C129.293 5.40666 129.338 5.42908 129.403 5.43655C129.496 5.4483 129.527 5.42588 129.476 5.38317C129.439 5.35328 129.386 5.33832 129.344 5.3458C129.321 5.35007 129.293 5.37036 129.393 5.40666C129.498 5.44723 129.492 5.46964 129.51 5.48246C129.555 5.51342 129.618 5.52623 129.683 5.52196C129.785 5.51448 129.884 5.50381 129.986 5.4974C130.014 5.49527 130.049 5.50274 130.075 5.51128C130.299 5.57748 130.301 5.58175 130.539 5.55613C130.614 5.54865 130.669 5.54865 130.728 5.56894C130.809 5.5967 130.868 5.64367 130.992 5.62872C131.157 5.60843 131.325 5.5967 131.494 5.58496C131.52 5.58282 131.549 5.60204 131.579 5.61058C131.663 5.6362 131.724 5.68424 131.848 5.66396C131.943 5.64794 132.047 5.64366 132.148 5.64046C132.175 5.63939 132.215 5.65648 132.228 5.67036C132.252 5.69491 132.221 5.72375 132.152 5.74403C132.124 5.75257 132.085 5.75043 132.053 5.75364C131.919 5.76538 131.785 5.77819 131.65 5.78779C131.579 5.79313 131.512 5.80915 131.504 5.84866C131.498 5.87535 131.571 5.89883 131.64 5.89669C131.742 5.89349 131.843 5.88495 131.941 5.87107C132.114 5.84758 132.264 5.85399 132.404 5.92125C132.504 5.96822 132.498 5.95115 132.604 6.08994C132.63 6.12517 132.709 6.12837 132.778 6.12624C132.945 6.1209 133.022 6.13692 133.008 6.17001C132.99 6.21058 132.931 6.22339 132.856 6.22872C132.721 6.23726 132.587 6.25115 132.453 6.2629C132.421 6.2661 132.384 6.2725 132.354 6.27036C132.323 6.26823 132.295 6.25542 132.268 6.24581C132.211 6.22552 132.163 6.19456 132.102 6.18708C132.041 6.17961 131.969 6.19563 131.902 6.20203C131.835 6.20737 131.764 6.22339 131.703 6.21591C131.642 6.20844 131.591 6.17642 131.537 6.1572C131.51 6.14759 131.478 6.13264 131.451 6.1337C131.317 6.14224 131.183 6.15613 131.049 6.16681C130.884 6.18069 130.884 6.18069 130.685 6.11449C130.628 6.09528 130.569 6.09635 130.494 6.10489C130.331 6.12197 130.329 6.11876 130.033 6.05684C130.004 6.05043 129.97 6.04296 129.941 6.04616C129.638 6.07072 129.338 6.09741 129.037 6.12303C128.779 6.14545 128.779 6.14546 128.636 6.25222C128.531 6.33123 128.529 6.33122 128.632 6.36752C128.716 6.39741 128.791 6.44118 128.882 6.4572C128.968 6.47214 129.073 6.4241 129.167 6.47321C129.214 6.49777 129.275 6.52446 129.334 6.52873C129.427 6.53407 129.527 6.5031 129.616 6.55008C129.661 6.57357 129.728 6.59813 129.785 6.5992C129.884 6.60133 129.986 6.58424 130.086 6.57677C130.116 6.57464 130.151 6.57464 130.179 6.57998C130.21 6.58638 130.236 6.5992 130.262 6.60987C130.344 6.64617 130.431 6.66325 130.537 6.6451C130.709 6.61521 130.864 6.63015 130.998 6.69848C131.016 6.70809 131.061 6.70916 131.089 6.70489C131.163 6.69422 131.226 6.69314 131.281 6.71343C131.303 6.72197 131.335 6.73691 131.331 6.74652C131.325 6.76253 131.301 6.78389 131.274 6.78923C131.083 6.82553 130.878 6.8298 130.681 6.84902C130.655 6.85115 130.622 6.83727 130.596 6.82766C130.539 6.80844 130.49 6.77642 130.429 6.76895C130.368 6.76147 130.297 6.77535 130.23 6.78069C130.163 6.78603 130.092 6.80204 130.031 6.79564C129.97 6.78817 129.913 6.76147 129.864 6.73798C129.807 6.71129 129.752 6.7081 129.677 6.71877C129.579 6.73265 129.478 6.73478 129.378 6.74226C129.323 6.72197 129.269 6.69954 129.212 6.68033C129.185 6.67072 129.153 6.65898 129.124 6.66005C128.99 6.66859 128.856 6.68139 128.722 6.69314C128.588 6.70488 128.588 6.70489 128.36 6.6387C128.334 6.63123 128.299 6.62269 128.271 6.62482C128.102 6.63763 127.935 6.65364 127.767 6.66645C127.702 6.67179 127.643 6.65684 127.59 6.62801C127.539 6.59919 127.478 6.58317 127.415 6.58851C127.147 6.61093 126.879 6.63229 126.61 6.65898C126.503 6.66966 126.411 6.66005 126.338 6.62162C126.253 6.57784 126.157 6.58852 126.058 6.59706C125.832 6.61841 125.83 6.61734 125.686 6.56289C125.657 6.55221 125.629 6.53193 125.602 6.53299C125.369 6.54901 125.133 6.56396 124.901 6.58958C124.779 6.60346 124.714 6.5661 124.633 6.53834C124.604 6.52873 124.574 6.50844 124.55 6.51058C124.381 6.52232 124.212 6.533 124.048 6.55435C123.883 6.57571 123.82 6.47642 123.696 6.47749C123.527 6.47856 123.361 6.50311 123.194 6.51806C123.06 6.5298 122.926 6.54154 122.792 6.55329C122.657 6.56503 122.523 6.57463 122.389 6.58851C122.318 6.59599 122.265 6.58638 122.206 6.55968C122.131 6.52445 122.042 6.49671 121.96 6.46468C121.836 6.41877 121.836 6.41876 121.686 6.43157C121.654 6.43478 121.619 6.43691 121.586 6.44011C121.341 6.4636 121.341 6.46147 121.028 6.39421C121.013 6.39101 120.977 6.40276 120.963 6.4113C120.92 6.43905 120.881 6.46894 120.843 6.49777C120.788 6.48069 120.721 6.47108 120.684 6.44652C120.58 6.37713 120.418 6.47214 120.312 6.40382C120.274 6.37819 120.206 6.35577 120.146 6.34937C120.083 6.34296 120.011 6.35791 119.946 6.36431C119.778 6.38033 119.778 6.37926 119.633 6.47428C119.56 6.52126 119.455 6.51271 119.359 6.52339C119.259 6.53513 119.164 6.54154 119.081 6.49777C119.005 6.45826 118.914 6.44866 118.806 6.46147C118.674 6.47749 118.538 6.48709 118.404 6.4967C118.375 6.49883 118.341 6.4935 118.312 6.48709C118.001 6.4241 118.001 6.42304 117.851 6.43692C117.784 6.44332 117.715 6.44545 117.65 6.45506C117.54 6.47214 117.457 6.44972 117.378 6.41556C117.351 6.40488 117.321 6.38461 117.294 6.38567C117.16 6.39101 117.028 6.40062 116.896 6.41023C116.794 6.4177 116.693 6.42197 116.595 6.43692C116.433 6.46147 116.353 6.39207 116.241 6.36004C116.075 6.37392 115.906 6.38353 115.74 6.40275C115.662 6.41129 115.611 6.40809 115.553 6.38247C115.477 6.35044 115.408 6.31414 115.286 6.33016C115.124 6.35151 114.953 6.35898 114.786 6.37179C114.675 6.3387 114.593 6.27143 114.433 6.29598C114.335 6.31093 114.232 6.31413 114.132 6.32268C113.998 6.33442 113.864 6.3451 113.73 6.35791C113.585 6.37073 113.587 6.36752 113.366 6.30453C113.238 6.26717 113.106 6.3088 112.976 6.31521C112.874 6.32055 112.823 6.36965 112.848 6.43264C112.872 6.49563 112.817 6.54474 112.724 6.55329C112.49 6.57357 112.254 6.59492 112.02 6.61307C111.992 6.6152 111.957 6.60773 111.931 6.60026C111.681 6.53299 111.681 6.53407 111.569 6.54368C111.403 6.5597 111.232 6.56823 111.067 6.58851C110.953 6.60239 110.87 6.57998 110.797 6.54368C110.74 6.51592 110.687 6.50952 110.614 6.51592C109.809 6.58745 109.004 6.65364 108.202 6.72731C108.082 6.73799 108.013 6.70703 107.931 6.6782C107.903 6.66859 107.877 6.64831 107.848 6.64831C107.781 6.64831 107.714 6.65792 107.647 6.66432C107.346 6.68995 107.045 6.7209 106.743 6.74012C106.614 6.74866 106.58 6.79778 106.525 6.83835C106.482 6.86931 106.434 6.88211 106.358 6.88638C106.285 6.89065 106.232 6.88531 106.175 6.85756C106.102 6.82126 106.019 6.79883 105.905 6.81378C105.773 6.83086 105.639 6.83834 105.503 6.85009C105.434 6.85543 105.381 6.87464 105.359 6.91307C105.354 6.91948 105.397 6.9355 105.422 6.94511C105.503 6.97714 105.58 7.0145 105.671 7.03692C105.765 7.05934 105.867 7.03371 105.964 7.0273C105.999 7.02517 106.031 7.01877 106.064 7.01984C106.094 7.0209 106.131 7.02625 106.153 7.03585C106.259 7.0839 106.371 7.11699 106.517 7.08817C106.643 7.10205 106.708 7.19066 106.869 7.16717C106.966 7.15329 107.068 7.14689 107.169 7.14155C107.196 7.14048 107.224 7.1597 107.253 7.16931C107.334 7.196 107.399 7.2387 107.521 7.22055C107.651 7.20133 107.789 7.19813 107.921 7.18319C107.994 7.17465 108.047 7.18212 108.104 7.20988C108.177 7.24511 108.261 7.27179 108.374 7.25471C108.472 7.23976 108.576 7.23656 108.675 7.22695C108.805 7.21521 108.805 7.21628 109.037 7.28247C109.063 7.28994 109.098 7.29848 109.126 7.29635C109.295 7.28354 109.462 7.26752 109.63 7.25471C109.695 7.24937 109.758 7.26325 109.803 7.29421C109.821 7.30702 109.815 7.32839 109.821 7.34654C109.486 7.37536 109.151 7.39991 108.817 7.43514C108.691 7.44902 108.635 7.40525 108.551 7.38069C108.523 7.37215 108.492 7.35401 108.466 7.35614C108.23 7.37429 107.996 7.3935 107.763 7.41699C107.69 7.42446 107.635 7.42019 107.58 7.38923C107.44 7.30702 107.269 7.35186 107.11 7.36361C106.988 7.37215 106.95 7.40525 106.964 7.47571C106.982 7.55899 107.055 7.58461 107.242 7.56967C107.31 7.56433 107.377 7.55685 107.444 7.55258C107.509 7.54831 107.568 7.56219 107.62 7.59101C107.671 7.61984 107.732 7.63479 107.795 7.63051C107.929 7.62091 108.066 7.6113 108.196 7.59529C108.303 7.58248 108.393 7.59315 108.468 7.63265C108.551 7.67642 108.649 7.66681 108.746 7.65721C108.974 7.63585 108.976 7.63693 109.118 7.69031C109.147 7.70098 109.175 7.72127 109.202 7.7202C109.435 7.70419 109.671 7.69031 109.901 7.66469C110.021 7.65187 110.09 7.68603 110.169 7.71379C110.197 7.7234 110.226 7.74476 110.252 7.74262C110.421 7.73088 110.59 7.71913 110.754 7.69884C110.832 7.68924 110.878 7.69564 110.941 7.72126C111.092 7.78425 111.096 7.78211 111.309 7.76183C111.374 7.75542 111.445 7.74368 111.506 7.75223C111.567 7.76077 111.616 7.79173 111.673 7.81095C111.699 7.81949 111.732 7.83123 111.76 7.82909C111.894 7.82055 112.029 7.80775 112.163 7.796C112.289 7.78426 112.289 7.78533 112.524 7.85152C112.62 7.87928 112.72 7.85579 112.815 7.84725C112.919 7.83764 113.012 7.83764 113.091 7.87928C113.171 7.92092 113.266 7.91877 113.368 7.91023C113.463 7.90169 113.561 7.87821 113.658 7.90704C113.882 7.97323 113.882 7.97429 114.02 7.96148C114.221 7.94333 114.421 7.92625 114.624 7.91023C114.65 7.9081 114.685 7.92091 114.711 7.92945C114.768 7.94867 114.817 7.98069 114.878 7.98817C114.939 7.99671 115.01 7.9839 115.075 7.97749C115.284 7.95721 115.299 7.94974 115.439 8.0202C115.557 8.07785 115.703 7.99458 115.813 8.06077C115.876 8.09814 115.961 8.12803 116.079 8.10988C116.176 8.09493 116.278 8.09066 116.38 8.08212C116.54 8.06824 116.54 8.06932 116.743 8.13337C116.77 8.14192 116.804 8.15258 116.831 8.15045C116.965 8.14191 117.101 8.13444 117.231 8.11522C117.384 8.0928 117.481 8.13337 117.595 8.17288C117.684 8.20384 117.79 8.17821 117.886 8.16753C117.989 8.15686 118.083 8.16005 118.16 8.20169C118.241 8.2444 118.337 8.23906 118.438 8.23052C118.534 8.22305 118.631 8.19849 118.729 8.22838C118.938 8.29457 118.938 8.29457 119.091 8.28176C119.225 8.27002 119.359 8.25721 119.493 8.24867C119.52 8.24654 119.552 8.26041 119.579 8.27002C119.635 8.28924 119.684 8.32127 119.745 8.32874C119.806 8.33622 119.877 8.32234 119.944 8.317C120.011 8.31166 120.083 8.29565 120.143 8.30205C120.204 8.30846 120.261 8.33515 120.31 8.35864C120.367 8.3864 120.42 8.3896 120.497 8.37892C120.595 8.36504 120.696 8.36184 120.796 8.35437C120.851 8.37465 120.908 8.39493 120.96 8.41735C121.015 8.44084 121.074 8.43871 121.149 8.43123C121.399 8.40561 121.401 8.40882 121.611 8.47501C121.706 8.5049 121.806 8.48034 121.901 8.47287C122.003 8.46433 122.099 8.46006 122.178 8.50277C122.255 8.54334 122.351 8.54867 122.452 8.53586C122.517 8.52732 122.586 8.52199 122.653 8.51879C122.684 8.51772 122.72 8.52199 122.743 8.53053C122.851 8.57537 122.956 8.61594 123.105 8.58712C123.235 8.59566 123.3 8.6832 123.456 8.66612C123.588 8.65117 123.726 8.64796 123.857 8.62874C123.976 8.61166 124.062 8.64156 124.123 8.67893C124.232 8.74512 124.387 8.65544 124.497 8.72057C124.56 8.75793 124.641 8.78783 124.763 8.77181C124.897 8.75473 124.94 8.77714 124.978 8.8444C125.001 8.88284 124.997 8.9138 124.956 8.9437C124.915 8.97466 124.871 8.96932 124.806 8.93409C124.73 8.89459 124.641 8.88711 124.533 8.89565C124.428 8.90419 124.363 8.84868 124.275 8.82733C124.188 8.80491 124.084 8.84228 123.993 8.81345C123.777 8.74619 123.777 8.74619 123.631 8.759C123.531 8.76754 123.428 8.77181 123.33 8.78676C123.214 8.80491 123.139 8.77181 123.06 8.74192C123.031 8.73124 123.003 8.71095 122.979 8.71202C122.745 8.72803 122.509 8.74298 122.277 8.76967C122.155 8.78355 122.09 8.74512 122.009 8.71843C121.981 8.70882 121.95 8.6896 121.926 8.69174C121.725 8.70669 121.525 8.7259 121.324 8.74405C121.286 8.77288 121.243 8.80063 121.206 8.83159C121.168 8.86362 121.115 8.8775 121.038 8.87644C120.91 8.87644 120.784 8.92128 120.656 8.86469C120.524 8.80704 120.513 8.81025 120.385 8.82412C120.223 8.84227 120.05 8.83801 119.898 8.87964C119.871 8.88712 119.843 8.90739 119.843 8.92234C119.841 8.93195 119.883 8.94583 119.91 8.95437C119.999 8.97999 120.103 8.94263 120.192 8.96932C120.251 8.9864 120.3 9.01202 120.359 9.03017C120.383 9.03764 120.42 9.03658 120.452 9.03551C120.487 9.03444 120.519 9.02698 120.552 9.02804C120.582 9.02911 120.615 9.03551 120.639 9.04512C120.751 9.08569 120.869 9.12306 120.969 9.1711C121.066 9.21808 121.158 9.18605 121.255 9.18391C121.645 9.25865 121.645 9.25971 121.908 9.23623C121.973 9.23089 122.04 9.22448 122.107 9.22555C122.135 9.22555 122.162 9.24476 122.19 9.25544C122.271 9.28746 122.349 9.31629 122.462 9.29921C122.56 9.28427 122.664 9.28106 122.763 9.27145C122.897 9.25971 122.897 9.25971 123.125 9.32697C123.182 9.34405 123.243 9.34192 123.316 9.33338C123.379 9.32591 123.444 9.34192 123.489 9.37288C123.507 9.3857 123.501 9.40705 123.507 9.4252C123.306 9.44228 123.103 9.45402 122.907 9.47965C122.781 9.49566 122.725 9.44975 122.641 9.4252C122.613 9.41666 122.582 9.39851 122.556 9.40064C122.357 9.41666 122.158 9.4348 121.958 9.45615C121.934 9.45829 121.903 9.48284 121.901 9.49779C121.897 9.52555 121.948 9.55224 122.021 9.55117C122.119 9.5501 122.214 9.53195 122.302 9.57572C122.375 9.61416 122.466 9.63125 122.574 9.61417C122.639 9.60456 122.708 9.60456 122.773 9.59601C122.946 9.57039 123.103 9.57573 123.233 9.64833C123.332 9.66754 123.43 9.6494 123.525 9.63979C123.596 9.63232 123.665 9.62484 123.716 9.64512C123.824 9.68783 123.93 9.73053 124.078 9.70171C124.239 9.7316 124.361 9.79459 124.495 9.84584C124.558 9.87039 124.606 9.88428 124.68 9.86826C124.71 9.86186 124.747 9.86185 124.779 9.85865C124.846 9.85331 124.917 9.83729 124.978 9.8437C125.039 9.85117 125.09 9.88214 125.145 9.90135C125.171 9.91096 125.202 9.92697 125.228 9.92591C125.33 9.92057 125.43 9.90989 125.529 9.90135C125.629 9.89388 125.728 9.88641 125.828 9.87894C125.911 9.9067 125.997 9.93446 126.08 9.96222C126.214 9.95047 126.348 9.93872 126.48 9.92804C126.629 9.91523 126.629 9.9163 126.842 9.98249C126.937 10.0124 127.039 9.99317 127.131 9.97929C127.283 9.95687 127.385 9.99745 127.492 10.0401C127.515 10.0487 127.555 10.054 127.582 10.0498C127.687 10.0348 127.779 10.0465 127.856 10.0861C127.911 10.1138 127.966 10.1266 128.033 10.1213C128.267 10.101 128.5 10.0796 128.734 10.0615C128.762 10.0594 128.795 10.069 128.821 10.0775C129.029 10.1426 129.031 10.1458 129.183 10.1288C129.319 10.1138 129.445 10.1074 129.553 10.1661C129.575 10.1789 129.61 10.1971 129.634 10.196C129.801 10.1853 129.97 10.1736 130.134 10.1554C130.21 10.1469 130.262 10.1501 130.321 10.1747C130.396 10.2056 130.464 10.243 130.588 10.2291C130.931 10.1896 130.933 10.196 131.339 10.2697C131.368 10.275 131.407 10.2665 131.439 10.2622C131.508 10.2515 131.559 10.2665 131.62 10.291C131.756 10.3466 131.76 10.3434 131.89 10.3316C131.99 10.322 132.093 10.3199 132.191 10.3039C132.341 10.2804 132.441 10.322 132.553 10.3615C132.642 10.3925 132.746 10.3668 132.841 10.3572C132.945 10.3466 133.038 10.3498 133.116 10.3903C133.169 10.4181 133.225 10.433 133.292 10.4277C133.526 10.4085 133.76 10.3871 133.994 10.3679C134.022 10.3658 134.057 10.3743 134.083 10.3818C134.315 10.448 134.315 10.4512 134.544 10.4266C134.618 10.4192 134.679 10.417 134.733 10.4394C134.786 10.4608 134.843 10.4811 134.898 10.5014C134.998 10.4939 135.099 10.4918 135.197 10.4789C135.272 10.4693 135.325 10.4736 135.384 10.496C135.461 10.5249 135.526 10.575 135.648 10.5505C135.711 10.5387 135.784 10.5419 135.847 10.5313C135.922 10.5174 135.973 10.5259 136.032 10.5537C136.105 10.5868 136.18 10.6209 136.298 10.6038C136.428 10.5846 136.567 10.5814 136.699 10.5665C136.772 10.5579 136.823 10.5665 136.882 10.5942C136.955 10.6295 137.038 10.6519 137.152 10.638C137.384 10.6113 137.386 10.6167 137.611 10.6839C137.668 10.701 137.729 10.6989 137.802 10.6903C137.865 10.6829 137.93 10.6989 137.975 10.7298C138.018 10.764 138.014 10.7853 138.018 10.8035ZM119.908 1.17459C119.841 1.17993 119.774 1.18634 119.676 1.09345C119.67 1.07744 119.674 1.05823 119.66 1.04435C119.627 1.01552 119.577 0.995237 119.516 0.992034C119.406 0.987763 119.274 1.02406 119.276 1.05181C119.278 1.0753 119.312 1.09558 119.379 1.1148C119.408 1.12227 119.43 1.13509 119.457 1.14363C119.534 1.16818 119.595 1.21623 119.707 1.19168C119.696 1.15858 119.686 1.12549 119.707 1.19168C119.696 1.23225 119.727 1.26108 119.8 1.27282C119.82 1.27602 119.851 1.27388 119.867 1.26748C119.93 1.24399 119.94 1.21197 119.894 1.12762C119.885 1.1415 119.892 1.16605 119.91 1.17246C119.928 1.17886 119.973 1.17353 119.995 1.16606C120.052 1.14577 120.081 1.11908 120.066 1.09666C120.058 1.08492 120.02 1.06997 119.995 1.06997C119.952 1.06997 119.914 1.09345 119.908 1.17459ZM136.341 13.5558C136.193 13.5761 136.022 13.5686 135.874 13.6103C135.847 13.6178 135.821 13.637 135.819 13.6519C135.817 13.6615 135.857 13.6754 135.882 13.6829C135.937 13.7 135.997 13.6946 136.069 13.6893C136.176 13.6818 136.239 13.7309 136.323 13.7555C136.349 13.7629 136.384 13.7683 136.412 13.7661C136.577 13.7533 136.739 13.7395 136.904 13.7245C136.932 13.7213 136.963 13.7138 136.987 13.7042C137.069 13.6733 137.06 13.653 136.981 13.6295C136.894 13.6039 136.825 13.5612 136.735 13.5409C136.607 13.5121 136.477 13.5505 136.341 13.5558ZM124.8 14.3352C124.7 14.3437 124.602 14.3523 124.503 14.3608C124.47 14.364 124.436 14.3651 124.405 14.3694C124.342 14.3768 124.295 14.3993 124.265 14.4345C124.312 14.4622 124.369 14.4783 124.432 14.4751C124.531 14.4686 124.629 14.4548 124.728 14.4516C124.836 14.4473 124.899 14.4953 124.982 14.5199C125.009 14.5274 125.041 14.5284 125.072 14.5295C125.222 14.5338 125.314 14.4783 125.285 14.4003C125.265 14.3395 125.188 14.3032 125.094 14.3106C124.997 14.3181 124.897 14.3267 124.8 14.3352ZM137.036 11.9779C137.06 11.9597 137.087 11.9469 137.099 11.9309C137.136 11.8765 137.121 11.8359 137.054 11.7932C136.973 11.7409 136.873 11.7761 136.782 11.7814C136.76 11.7825 136.735 11.8049 136.723 11.8188C136.715 11.8284 136.715 11.8487 136.727 11.854C136.827 11.8967 136.932 11.9362 137.036 11.9779ZM119.406 8.82412C119.308 8.83267 119.209 8.83907 119.111 8.85081C119.087 8.85402 119.064 8.8743 119.05 8.88818C119.024 8.9138 119.052 8.94903 119.135 8.95223C119.231 8.9565 119.331 8.93836 119.43 8.92982C119.556 8.91914 119.631 8.87964 119.585 8.84547C119.54 8.81238 119.479 8.80597 119.406 8.82412ZM12.4275 6.54261C12.4925 6.53727 12.5596 6.533 12.6246 6.52553C12.6856 6.51805 12.7324 6.49457 12.7629 6.45933C12.712 6.43158 12.6551 6.41663 12.5921 6.41983C12.4925 6.42624 12.395 6.43478 12.2975 6.44545C12.2365 6.45186 12.1776 6.47535 12.1633 6.51165C12.1491 6.5394 12.2852 6.55542 12.4275 6.54261ZM110.811 6.37819C110.838 6.3878 110.864 6.40702 110.89 6.40702C110.955 6.40702 111.023 6.40061 111.084 6.38994C111.11 6.38567 111.13 6.36645 111.142 6.3515C111.151 6.34189 111.149 6.32482 111.136 6.31628C111.077 6.26503 110.842 6.28318 110.803 6.3419C110.799 6.35257 110.809 6.36645 110.811 6.37819ZM104.399 0.531882C104.405 0.548963 104.407 0.566043 104.416 0.583125C104.432 0.615154 104.476 0.638647 104.542 0.654661C104.592 0.62797 104.619 0.598081 104.617 0.566053C104.615 0.548971 104.609 0.531878 104.6 0.514796C104.584 0.482767 104.54 0.459288 104.474 0.443273C104.424 0.468896 104.399 0.498785 104.399 0.531882ZM141.733 14.521C141.714 14.5348 141.696 14.5487 141.676 14.5615C141.731 14.5925 141.781 14.6021 141.82 14.585C141.844 14.5743 141.859 14.5583 141.877 14.5445C141.822 14.5135 141.773 14.505 141.733 14.521ZM140.469 14.6662C140.495 14.6758 140.519 14.6886 140.548 14.695C140.595 14.7057 140.637 14.6875 140.67 14.6491C140.643 14.6395 140.619 14.6267 140.59 14.6202C140.544 14.6096 140.501 14.6277 140.469 14.6662ZM141.269 14.4708C141.255 14.4964 141.284 14.5178 141.359 14.5359C141.377 14.522 141.401 14.5092 141.414 14.4943C141.434 14.4697 141.399 14.4473 141.326 14.4302C141.306 14.443 141.288 14.4569 141.269 14.4708ZM136.979 13.3199C136.965 13.3455 136.993 13.3669 137.068 13.385C137.087 13.3711 137.111 13.3583 137.123 13.3434C137.144 13.3188 137.109 13.2964 137.036 13.2793C137.016 13.2921 136.997 13.306 136.979 13.3199ZM131.134 5.76538C131.116 5.77926 131.098 5.79314 131.077 5.80595C131.132 5.83691 131.183 5.84652 131.222 5.82943C131.246 5.81876 131.26 5.80274 131.278 5.78886C131.224 5.7579 131.175 5.74936 131.134 5.76538ZM125.535 1.75751C125.584 1.76499 125.625 1.75005 125.659 1.71054C125.633 1.70093 125.608 1.68812 125.58 1.68172C125.533 1.67104 125.491 1.68919 125.458 1.72763C125.484 1.7383 125.511 1.7479 125.535 1.75751ZM122.562 1.50662C122.544 1.5205 122.525 1.53438 122.505 1.54719C122.56 1.57815 122.611 1.58776 122.649 1.57068C122.674 1.56 122.688 1.54399 122.706 1.53011C122.651 1.49915 122.603 1.49168 122.562 1.50662ZM102.4 0.530813C102.381 0.544692 102.363 0.558572 102.343 0.571383C102.397 0.602344 102.448 0.61195 102.487 0.594868C102.511 0.584191 102.526 0.568177 102.544 0.554297C102.489 0.523336 102.44 0.515866 102.4 0.530813ZM2.00585 9.217C1.97943 9.20739 1.95304 9.1978 1.92865 9.18712C1.86971 9.21595 1.85143 9.24263 1.88395 9.26292C1.90427 9.27573 1.93473 9.2832 1.96115 9.29281C2.02212 9.26399 2.03634 9.23836 2.00585 9.217Z" fill="#FFE492"/>
<path d="M36.0228 11.2993C35.7891 11.3196 35.5575 11.3452 35.3237 11.358C35.1998 11.3644 35.1551 11.4104 35.1043 11.4531C35.0636 11.4872 35.0169 11.4979 34.9417 11.5043C34.3076 11.5566 33.6756 11.6121 33.0435 11.6666C32.9643 11.6527 32.9256 11.6303 32.9439 11.6036C32.9541 11.5876 32.9785 11.5652 33.0029 11.563C33.4358 11.5235 33.8666 11.483 34.3015 11.452C34.4255 11.4434 34.46 11.3965 34.523 11.358C34.5434 11.3452 34.5596 11.326 34.586 11.3185C34.6125 11.31 34.6511 11.3111 34.6856 11.3089C35.3847 11.2481 36.0839 11.1883 36.783 11.1274C36.8622 11.1413 36.9008 11.1637 36.8826 11.1904C36.8724 11.2064 36.848 11.2289 36.8236 11.231C36.5553 11.2534 36.2891 11.2758 36.0228 11.2993Z" fill="#FFE492"/>
<path d="M163.642 16.9846C163.537 16.9974 163.403 17.0155 163.293 16.9536C163.24 16.9237 163.183 16.9141 163.114 16.9205C163.014 16.9312 162.913 16.9397 162.811 16.9461C162.785 16.9472 162.75 16.9354 162.724 16.9258C162.667 16.9066 162.618 16.8746 162.557 16.8661C162.496 16.8575 162.423 16.881 162.36 16.8757C162.277 16.8682 162.242 16.8394 162.264 16.8127C162.277 16.7977 162.301 16.7764 162.327 16.7732C162.703 16.7337 162.705 16.7337 162.811 16.7721C162.892 16.802 162.968 16.8351 163.083 16.8169C163.181 16.802 163.285 16.7988 163.384 16.7892C163.522 16.7764 163.522 16.7774 163.746 16.8447C163.803 16.8618 163.864 16.8607 163.937 16.8511C164 16.8436 164.061 16.8607 164.112 16.8895C164.079 16.9258 164.033 16.9493 163.97 16.9557C163.868 16.9664 163.768 16.9739 163.642 16.9846Z" fill="#FFE492"/>
<path d="M160.328 16.6555C160.584 16.6331 160.842 16.6139 161.098 16.5883C161.204 16.5776 161.287 16.5894 161.361 16.6257C161.44 16.6652 161.529 16.662 161.627 16.6545C161.688 16.6502 161.747 16.6673 161.787 16.6972C161.804 16.7089 161.8 16.7303 161.806 16.7474C161.582 16.7666 161.357 16.7869 161.131 16.8039C161.105 16.8061 161.072 16.7954 161.048 16.7869C160.993 16.7687 160.946 16.7367 160.887 16.7303C160.761 16.7153 160.635 16.7441 160.507 16.7495C160.446 16.7516 160.387 16.7356 160.346 16.7068C160.33 16.6929 160.334 16.6726 160.328 16.6555Z" fill="#FFE492"/>
<path d="M67.2559 7.47643C67.5221 7.45294 67.7883 7.43053 68.0545 7.40704C68.1338 7.42199 68.1704 7.44334 68.1541 7.47003C68.144 7.48604 68.1196 7.50846 68.0952 7.5106C67.5627 7.55864 67.0303 7.60454 66.4999 7.65045C66.4206 7.63551 66.384 7.61416 66.4003 7.58747C66.4104 7.57145 66.4348 7.54903 66.4592 7.5469C66.7234 7.52234 66.9896 7.49992 67.2559 7.47643Z" fill="#FFE492"/>
<path d="M26.3004 13.4087C26.1805 13.4109 26.0546 13.4504 25.9204 13.4205C25.894 13.4151 25.8574 13.398 25.8595 13.3884C25.8635 13.3724 25.8879 13.3521 25.9143 13.3457C26.0302 13.319 26.1745 13.3158 26.2334 13.2411C26.2619 13.2027 26.3147 13.1899 26.3858 13.1824C26.461 13.1739 26.5139 13.177 26.5728 13.1995C26.65 13.2283 26.7151 13.2817 26.837 13.2539C26.8431 13.271 26.8573 13.2902 26.8512 13.3062C26.8451 13.3222 26.8187 13.3372 26.7943 13.3489C26.772 13.3596 26.7415 13.3692 26.713 13.3724C26.5789 13.3852 26.4447 13.3959 26.3004 13.4087Z" fill="#FFE492"/>
<path d="M132.329 13.1946C132.428 13.186 132.532 13.1817 132.629 13.1668C132.707 13.155 132.755 13.1625 132.816 13.1881C132.92 13.233 132.926 13.2287 133.18 13.2351C133.209 13.2362 133.243 13.2522 133.259 13.2661C133.27 13.2735 133.255 13.2938 133.243 13.3045C133.225 13.3184 133.198 13.3365 133.174 13.3365C133.014 13.3397 132.851 13.4027 132.694 13.3301C132.615 13.2938 132.528 13.2767 132.42 13.2928C132.355 13.3024 132.286 13.3066 132.219 13.3109C132.154 13.3152 132.087 13.3034 132.046 13.2714C131.987 13.2244 132.022 13.2063 132.127 13.2095C132.195 13.2116 132.262 13.1999 132.329 13.1946Z" fill="#FFE492"/>
<path d="M168.989 20.5537C169.117 20.5431 169.245 20.5303 169.375 20.5217C169.401 20.5196 169.434 20.5313 169.458 20.5388C169.556 20.5708 169.541 20.6253 169.545 20.6733C169.547 20.7235 169.322 20.7641 169.226 20.7299C169.121 20.6915 169.025 20.6477 168.879 20.6712C168.822 20.6797 168.755 20.6605 168.718 20.6295C168.663 20.5847 168.694 20.5665 168.798 20.5697C168.859 20.5719 168.924 20.5601 168.989 20.5537Z" fill="#FFE492"/>
<path d="M104.171 6.02225C104.303 6.0105 104.435 5.99236 104.567 5.9913C104.644 5.99023 104.683 6.02545 104.664 6.05108C104.654 6.06709 104.63 6.08951 104.606 6.09165C104.341 6.11727 104.077 6.13863 103.813 6.16211C103.736 6.14717 103.697 6.12475 103.715 6.09913C103.726 6.08311 103.75 6.06176 103.774 6.05856C103.906 6.04361 104.039 6.03399 104.171 6.02225Z" fill="#FFE492"/>
<path d="M166.418 17.0786C166.546 17.068 166.677 17.0519 166.805 17.0466C166.872 17.0445 166.924 17.069 166.933 17.0968C166.937 17.1096 166.904 17.132 166.878 17.1374C166.695 17.1737 166.498 17.1779 166.307 17.1961C166.246 17.2014 166.181 17.1843 166.144 17.1544C166.089 17.1085 166.12 17.0915 166.223 17.0947C166.288 17.0957 166.353 17.084 166.418 17.0786Z" fill="#FFE492"/>
<path d="M135.497 13.3386C135.562 13.3332 135.629 13.3193 135.692 13.3236C135.759 13.329 135.802 13.3599 135.822 13.3909C135.844 13.4261 135.842 13.4592 135.822 13.4891C135.79 13.5404 135.757 13.5382 135.682 13.5041C135.566 13.4507 135.558 13.4571 135.328 13.4592C135.302 13.4592 135.269 13.4432 135.249 13.4293C135.219 13.408 135.235 13.3749 135.306 13.3557C135.359 13.3418 135.432 13.3439 135.497 13.3386Z" fill="#FFE492"/>
<path d="M161.815 16.7283C161.91 16.7198 162.006 16.7059 162.101 16.7059C162.168 16.7048 162.221 16.7294 162.227 16.7561C162.229 16.7689 162.199 16.7902 162.174 16.7967C162.058 16.8255 161.928 16.8276 161.802 16.8372C161.743 16.8415 161.678 16.8244 161.642 16.7945C161.587 16.7497 161.619 16.7294 161.719 16.7358C161.749 16.7379 161.782 16.7315 161.815 16.7283Z" fill="#FFE492"/>
<path d="M146.441 15.4184C146.298 15.4312 146.164 15.4152 146.174 15.3874C146.189 15.3511 146.248 15.3276 146.308 15.3212C146.406 15.3105 146.504 15.302 146.603 15.2956C146.666 15.2913 146.723 15.3073 146.774 15.3351C146.743 15.3692 146.697 15.3938 146.636 15.4013C146.573 15.4087 146.506 15.413 146.441 15.4184Z" fill="#FFE492"/>
<path d="M145.731 15.2815C145.826 15.273 145.922 15.2591 146.017 15.2591C146.084 15.2581 146.137 15.2826 146.143 15.3093C146.145 15.3221 146.115 15.3435 146.09 15.3499C145.974 15.3787 145.844 15.3808 145.718 15.3904C145.659 15.3947 145.594 15.3776 145.558 15.3477C145.503 15.3029 145.535 15.2826 145.635 15.289C145.665 15.2912 145.698 15.2847 145.731 15.2815Z" fill="#FFE492"/>
<path d="M134.147 13.33C134.242 13.3215 134.338 13.3076 134.433 13.3066C134.5 13.3055 134.553 13.33 134.559 13.3567C134.561 13.3696 134.531 13.3898 134.506 13.3973C134.39 13.4261 134.26 13.4283 134.134 13.4379C134.075 13.4422 134.01 13.4251 133.974 13.3952C133.919 13.3503 133.951 13.33 134.051 13.3364C134.081 13.3386 134.114 13.3322 134.147 13.33Z" fill="#FFE492"/>
<path d="M133.561 13.267C133.662 13.2585 133.695 13.2531 133.728 13.2531C133.788 13.2531 133.851 13.2659 133.888 13.2969C133.943 13.3417 133.91 13.3545 133.811 13.3567C133.683 13.3588 133.557 13.3812 133.429 13.3855C133.362 13.3876 133.309 13.362 133.305 13.3353C133.303 13.3225 133.333 13.3001 133.358 13.2958C133.443 13.2798 133.536 13.2702 133.561 13.267Z" fill="#FFE492"/>
<path d="M145.181 6.98594C145.116 6.99128 145.047 7.00622 144.986 7.00089C144.905 6.99341 144.872 6.96459 144.893 6.9379C144.905 6.92295 144.927 6.9016 144.952 6.8984C145.082 6.88345 145.214 6.87384 145.344 6.86316C145.421 6.87917 145.456 6.90159 145.435 6.92828C145.423 6.94323 145.401 6.96351 145.376 6.96778C145.313 6.97846 145.246 6.9806 145.181 6.98594Z" fill="#FFE492"/>
<path d="M65.9818 7.60217C66.0448 7.6011 66.1017 7.61498 66.1504 7.64167C66.12 7.67583 66.0753 7.69825 66.0143 7.70786C65.9838 7.71213 65.9493 7.71533 65.9167 7.7164C65.8537 7.71853 65.7968 7.70359 65.748 7.6769C65.7785 7.64273 65.8253 7.62031 65.8842 7.61071C65.9147 7.60643 65.9493 7.60537 65.9818 7.60217Z" fill="#FFE492"/>
<path d="M165.475 17.0743C165.473 17.0433 165.597 17.0081 165.708 17.0091C165.767 17.0102 165.828 17.0252 165.863 17.054C165.916 17.0978 165.885 17.1148 165.786 17.1116C165.725 17.1095 165.66 17.1277 165.599 17.1244C165.529 17.1234 165.489 17.0999 165.475 17.0743Z" fill="#FFE492"/>
<path d="M135.887 13.4678C135.885 13.4561 135.875 13.4422 135.881 13.4315C135.919 13.3728 136.153 13.3546 136.214 13.4059C136.224 13.4155 136.228 13.4315 136.22 13.4411C136.208 13.4561 136.186 13.4753 136.161 13.4795C136.098 13.4902 136.033 13.4956 135.968 13.4966C135.94 13.4966 135.913 13.4785 135.887 13.4678Z" fill="#FFE492"/>
<path d="M27.3684 13.2384C27.1286 13.2609 27.1245 13.2587 27.1672 13.2053C27.2058 13.1573 27.277 13.1285 27.3806 13.1285C27.4111 13.1285 27.4436 13.1263 27.47 13.1306C27.4985 13.1359 27.5391 13.1466 27.5452 13.1594C27.5574 13.184 27.5229 13.2107 27.4619 13.2288C27.4355 13.2374 27.4009 13.2352 27.3684 13.2384Z" fill="#FFE492"/>
<path d="M69.1551 7.45168C69.0839 7.46983 69.023 7.46343 68.9783 7.42927C68.9336 7.3951 69.0047 7.35453 69.1287 7.34492C69.1612 7.34278 69.1957 7.33425 69.2262 7.33852C69.2567 7.34172 69.2872 7.35452 69.3055 7.36734C69.338 7.38869 69.3177 7.41752 69.2527 7.44208C69.2262 7.45169 69.1876 7.44955 69.1551 7.45168Z" fill="#FFE492"/>
<path d="M165.479 16.9944C165.498 16.9805 165.516 16.9666 165.537 16.9538C165.614 16.9719 165.648 16.9933 165.627 17.0179C165.614 17.0328 165.589 17.0456 165.571 17.0595C165.494 17.0413 165.462 17.0189 165.479 16.9944Z" fill="#FFE492"/>
<path d="M30.3652 25.3919C30.3652 25.3791 30.3937 25.3588 30.416 25.3546C30.4587 25.3471 30.5115 25.362 30.5481 25.3919C30.5989 25.4346 30.5685 25.4571 30.475 25.4453C30.41 25.4368 30.3652 25.4154 30.3652 25.3919Z" fill="#FFE492"/>
<path d="M136.645 12.4737C136.672 12.4833 136.698 12.4929 136.723 12.5036C136.688 12.5431 136.645 12.5601 136.601 12.5495C136.572 12.5431 136.548 12.5302 136.521 12.5206C136.556 12.4811 136.597 12.4662 136.645 12.4737Z" fill="#FFE492"/>
<path d="M135.934 12.4259C135.974 12.4099 136.023 12.4185 136.08 12.4494C136.062 12.4633 136.046 12.4793 136.023 12.49C135.985 12.5071 135.934 12.4985 135.879 12.4665C135.895 12.4537 135.913 12.4398 135.934 12.4259Z" fill="#FFE492"/>
<path d="M135.358 12.4727C135.385 12.4823 135.411 12.4919 135.436 12.5026C135.401 12.5421 135.36 12.5592 135.314 12.5485C135.285 12.5421 135.261 12.5293 135.234 12.5197C135.269 12.4802 135.31 12.4642 135.358 12.4727Z" fill="#FFE492"/>
<path d="M135.376 12.4163C135.407 12.4377 135.391 12.4633 135.33 12.4921C135.303 12.4825 135.272 12.475 135.251 12.4622C135.218 12.4419 135.235 12.4152 135.297 12.3864C135.322 12.3971 135.349 12.4067 135.376 12.4163Z" fill="#FFE492"/>
</svg>
